<?xml version="1.0" encoding="UTF-8"?>
<svg id="_レイヤー_2" data-name="レイヤー_2" xmlns="http://www.w3.org/2000/svg" viewBox="0 0 342.07 59.55">
  <defs>
    <style>
      .cls-1 {
        fill: #f58196;
      }

      .cls-2 {
        fill: none;
        stroke: #fff;
        stroke-linecap: round;
        stroke-linejoin: round;
        stroke-width: 10px;
      }
    </style>
  </defs>
  <g id="About_PC">
    <g id="About_Me">
      <g id="_私について" data-name="私について">
        <g id="about_me">
          <path class="cls-2" d="M41.04,58.97c-2.3,0-3.02-.86-3.02-2.59v-19.08H6.05v19.08c0,1.73-.79,2.59-3.02,2.59s-3.02-.86-3.02-2.59V15.62C0,6.91,6.7.36,14.91.36h14.33c8.71,0,14.83,6.91,14.83,15.19v40.83c0,1.73-.79,2.59-3.02,2.59ZM38.02,15.91c0-5.04-3.53-9.5-9.14-9.5h-13.61c-5.04,0-9.22,4.03-9.22,9.58v15.41h31.97v-15.48Z"/>
          <path class="cls-2" d="M78.84,58.97h-10.15c-8.06,0-13.83-5.76-13.83-13.25V2.95c0-1.73.72-2.59,2.95-2.59s2.95.86,2.95,2.59v12.67h18.43c7.42,0,13.46,5.18,13.46,13.11v16.99c0,7.42-5.83,13.25-13.83,13.25ZM86.76,30.1c0-5.4-4.03-8.57-8.93-8.57h-17.07v23.11c0,4.75,3.74,8.57,8.93,8.57h8.14c5.26,0,8.93-3.82,8.93-8.64v-14.47Z"/>
          <path class="cls-2" d="M123.05,59.04h-7.34c-8.71,0-15.84-6.7-15.84-16.13v-11.23c0-9.5,7.13-16.2,15.84-16.2h7.34c9.14,0,15.91,7.34,15.91,16.13v11.31c0,8.78-6.77,16.13-15.91,16.13ZM133.2,31.97c0-5.76-4.54-10.95-10.51-10.95h-6.55c-5.91,0-10.51,4.61-10.51,11.09v10.37c0,6.41,4.61,10.95,10.51,10.95h6.55c5.98,0,10.51-5.04,10.51-10.87v-10.58Z"/>
          <path class="cls-2" d="M170.07,58.97h-7.13c-8.71,0-16.06-6.62-16.06-16.34v-24.48c0-1.73.72-2.59,2.88-2.59s2.95.86,2.95,2.59v24.05c0,6.62,4.82,11.09,10.73,11.09h6.19c6.12,0,10.73-5.04,10.73-11.02v-24.19c0-1.66.72-2.52,2.88-2.52s2.88.86,2.88,2.52v24.63c0,9-6.91,16.27-16.06,16.27Z"/>
          <path class="cls-2" d="M219.17,21.75h-8.86v34.63c0,1.73-.79,2.59-3.02,2.59s-3.02-.86-3.02-2.59V21.75h-9.22c-1.66,0-2.45-.72-2.45-2.88s.79-2.88,2.45-2.88h9.22V3.1c0-1.73.72-2.66,3.02-2.66s3.02.94,3.02,2.66v12.89h8.86c1.66,0,2.52.72,2.52,2.88s-.86,2.88-2.52,2.88Z"/>
          <path class="cls-2" d="M291.03,59.55c-1.87,0-3.1-1.15-3.1-2.45V12.1c0-.72-.22-1.08-.58-1.08-.29,0-.58.22-.86.5l-9.58,9.5c-2.95,2.95-6.12,4.46-9.29,4.46s-6.05-1.44-9-4.39l-9.72-9.65c-.29-.29-.58-.5-.86-.5-.36,0-.58.36-.58,1.08v45.08c0,1.3-1.22,2.45-3.02,2.45s-3.1-1.15-3.1-2.45V1.94c0-1.08.94-1.94,2.45-1.94s2.38.43,3.1,1.15l14.69,14.69c2.02,2.02,4.1,3.02,6.12,3.02s4.25-1.01,6.34-3.17l14.47-14.54c.72-.72,1.66-1.15,3.17-1.15s2.38.86,2.38,1.94v55.16c0,1.3-1.22,2.45-3.02,2.45Z"/>
          <path class="cls-2" d="M331.06,40.32h-22.47v7.06c0,3.6,2.59,6.12,5.98,6.12h24.19c1.22,0,2.23,1.08,2.23,2.74s-1.01,2.74-2.23,2.74h-24.91c-6.26,0-11.16-4.68-11.16-10.94v-21.31c0-6.26,4.82-11.09,11.09-11.09h17.28c6.26,0,11.02,4.61,11.02,10.87v2.88c0,6.19-4.75,10.94-11.02,10.94ZM336.17,27.07c0-3.46-2.52-5.98-5.98-5.98h-15.62c-3.38,0-5.98,2.52-5.98,5.98v8.35h21.6c3.46,0,5.98-2.59,5.98-6.05v-2.3Z"/>
        </g>
        <g id="about_me-2" data-name="about_me">
          <path class="cls-1" d="M41.04,58.97c-2.3,0-3.02-.86-3.02-2.59v-19.08H6.05v19.08c0,1.73-.79,2.59-3.02,2.59s-3.02-.86-3.02-2.59V15.62C0,6.91,6.7.36,14.91.36h14.33c8.71,0,14.83,6.91,14.83,15.19v40.83c0,1.73-.79,2.59-3.02,2.59ZM38.02,15.91c0-5.04-3.53-9.5-9.14-9.5h-13.61c-5.04,0-9.22,4.03-9.22,9.58v15.41h31.97v-15.48Z"/>
          <path class="cls-1" d="M78.84,58.97h-10.15c-8.06,0-13.83-5.76-13.83-13.25V2.95c0-1.73.72-2.59,2.95-2.59s2.95.86,2.95,2.59v12.67h18.43c7.42,0,13.46,5.18,13.46,13.11v16.99c0,7.42-5.83,13.25-13.83,13.25ZM86.76,30.1c0-5.4-4.03-8.57-8.93-8.57h-17.07v23.11c0,4.75,3.74,8.57,8.93,8.57h8.14c5.26,0,8.93-3.82,8.93-8.64v-14.47Z"/>
          <path class="cls-1" d="M123.05,59.04h-7.34c-8.71,0-15.84-6.7-15.84-16.13v-11.23c0-9.5,7.13-16.2,15.84-16.2h7.34c9.14,0,15.91,7.34,15.91,16.13v11.31c0,8.78-6.77,16.13-15.91,16.13ZM133.2,31.97c0-5.76-4.54-10.95-10.51-10.95h-6.55c-5.91,0-10.51,4.61-10.51,11.09v10.37c0,6.41,4.61,10.95,10.51,10.95h6.55c5.98,0,10.51-5.04,10.51-10.87v-10.58Z"/>
          <path class="cls-1" d="M170.07,58.97h-7.13c-8.71,0-16.06-6.62-16.06-16.34v-24.48c0-1.73.72-2.59,2.88-2.59s2.95.86,2.95,2.59v24.05c0,6.62,4.82,11.09,10.73,11.09h6.19c6.12,0,10.73-5.04,10.73-11.02v-24.19c0-1.66.72-2.52,2.88-2.52s2.88.86,2.88,2.52v24.63c0,9-6.91,16.27-16.06,16.27Z"/>
          <path class="cls-1" d="M219.17,21.75h-8.86v34.63c0,1.73-.79,2.59-3.02,2.59s-3.02-.86-3.02-2.59V21.75h-9.22c-1.66,0-2.45-.72-2.45-2.88s.79-2.88,2.45-2.88h9.22V3.1c0-1.73.72-2.66,3.02-2.66s3.02.94,3.02,2.66v12.89h8.86c1.66,0,2.52.72,2.52,2.88s-.86,2.88-2.52,2.88Z"/>
          <path class="cls-1" d="M291.03,59.55c-1.87,0-3.1-1.15-3.1-2.45V12.1c0-.72-.22-1.08-.58-1.08-.29,0-.58.22-.86.5l-9.58,9.5c-2.95,2.95-6.12,4.46-9.29,4.46s-6.05-1.44-9-4.39l-9.72-9.65c-.29-.29-.58-.5-.86-.5-.36,0-.58.36-.58,1.08v45.08c0,1.3-1.22,2.45-3.02,2.45s-3.1-1.15-3.1-2.45V1.94c0-1.08.94-1.94,2.45-1.94s2.38.43,3.1,1.15l14.69,14.69c2.02,2.02,4.1,3.02,6.12,3.02s4.25-1.01,6.34-3.17l14.47-14.54c.72-.72,1.66-1.15,3.17-1.15s2.38.86,2.38,1.94v55.16c0,1.3-1.22,2.45-3.02,2.45Z"/>
          <path class="cls-1" d="M331.06,40.32h-22.47v7.06c0,3.6,2.59,6.12,5.98,6.12h24.19c1.22,0,2.23,1.08,2.23,2.74s-1.01,2.74-2.23,2.74h-24.91c-6.26,0-11.16-4.68-11.16-10.94v-21.31c0-6.26,4.82-11.09,11.09-11.09h17.28c6.26,0,11.02,4.61,11.02,10.87v2.88c0,6.19-4.75,10.94-11.02,10.94ZM336.17,27.07c0-3.46-2.52-5.98-5.98-5.98h-15.62c-3.38,0-5.98,2.52-5.98,5.98v8.35h21.6c3.46,0,5.98-2.59,5.98-6.05v-2.3Z"/>
        </g>
      </g>
    </g>
  </g>
</svg>