<?xml version="1.0" encoding="UTF-8"?>
<svg id="_レイヤー_2" data-name="レイヤー_2" xmlns="http://www.w3.org/2000/svg" viewBox="0 0 87.86 79.07">
  <defs>
    <style>
      .cls-1 {
        fill: #64b5f6;
      }

      .cls-2 {
        fill: #c62828;
      }

      .cls-3 {
        fill: #f44336;
      }

      .cls-4 {
        fill: #ff847a;
      }
    </style>
  </defs>
  <g id="TOP_PC">
    <g>
      <path class="cls-1" d="M58.78,67.41l-1.31,1.95c.89.63,1.59,1.99,2.1,4.07.72,2.96,2.03,4.73,3.94,5.33,1.69.52,3.29.37,4.81-.43.86-.51,2.03-1.49,3.51-2.94,2.2-2.14,4.01-3.38,5.44-3.71,2.46-.62,5.55.33,9.29,2.84l1.31-1.95c-4.27-2.88-7.99-3.94-11.17-3.18-1.85.47-4.02,1.93-6.5,4.38-2.4,2.35-4.39,3.27-5.95,2.76-1.1-.29-1.89-1.52-2.37-3.67-.66-2.68-1.68-4.5-3.08-5.45Z"/>
      <path class="cls-3" d="M58.65,72.2c-.38.23-.78.35-1.21.36-.6.02-1.13-.18-1.59-.61-.47-.43-.69-.95-.66-1.57-.04-1.44-.12-3-.23-4.68-.12-1.68-.32-3.06-.63-4.13,2.96,1.04,5.67,2.56,8.14,4.54.19.16.36.32.5.5.3.53.4,1.09.3,1.69-.1.59-.4,1.06-.91,1.41l-3.71,2.48Z"/>
      <path class="cls-3" d="M6.22,48.47h0c-2.51-3.3-4.26-6.86-5.24-10.67C0,34-.25,30.14.25,26.25c.5-3.9,1.71-7.56,3.62-11s4.53-6.42,7.83-8.93c3.28-2.56,6.84-4.34,10.67-5.33C26.21,0,30.06-.25,33.93.26c3.87.51,7.54,1.73,11.02,3.66,3.48,1.93,6.47,4.55,8.98,7.85,2.87,3.69,5.01,7.66,6.43,11.91,1.42,4.25,2.25,8.47,2.5,12.67.25,4.2.07,8.13-.53,11.8-.6,3.67-1.5,6.85-2.69,9.54s-2.5,4.6-3.94,5.73c-1.46,1.08-3.59,1.9-6.41,2.46-2.81.56-6.03.72-9.67.47-3.63-.25-7.44-1.02-11.41-2.3-3.97-1.28-7.86-3.18-11.66-5.69s-7.25-5.81-10.35-9.88Z"/>
      <path class="cls-2" d="M55.11,66.33h0c-.54.42-1.13.58-1.79.48-.65-.1-1.18-.4-1.58-.88-.37-.56-.52-1.16-.44-1.8.08-.64.38-1.17.92-1.6l3.26-2.47c.54-.42,1.13-.58,1.79-.48s1.15.41,1.5.92c.4.49.57,1.06.5,1.73-.06.67-.38,1.19-.94,1.56l-3.23,2.54Z"/>
      <path class="cls-4" d="M31.52,4.62c2.32.3,4.4,1.12,6.25,2.47,1.85,1.35,3.25,3.09,4.21,5.21.64,1.29.85,2.37.63,3.22-.22.86-.8,1.4-1.72,1.64-.95.31-1.9.2-2.83-.32s-1.85-1.04-2.74-1.55c-.73-.4-1.6-.82-2.61-1.24-1.01-.43-2.75-.48-5.22-.16-.97.13-1.88-.04-2.73-.5s-1.5-1.09-1.97-1.85c-.46-.76-.6-1.55-.42-2.36.26-1.45.89-2.52,1.88-3.21s2.15-1.13,3.46-1.32c1.31-.19,2.58-.2,3.81-.03Z"/>
    </g>
  </g>
</svg>