<?xml version="1.0" encoding="UTF-8"?>
<svg id="_レイヤー_2" data-name="レイヤー_2" xmlns="http://www.w3.org/2000/svg" viewBox="0 0 148.96 105.84">
  <defs>
    <style>
      .cls-1 {
        fill: #e4eaee;
      }

      .cls-2 {
        fill: #bacdd2;
      }
    </style>
  </defs>
  <g id="TOP_PC">
    <g>
      <path class="cls-1" d="M124.11,49.59c.55.51,1.5.73,2.82.67,1.33-.06,2.97,0,4.93.18s4.21.92,6.75,2.23c2.9,1.47,5.07,3.21,6.49,5.23,1.42,2.02,2.35,3.91,2.78,5.66.43,1.75.58,3.08.44,3.97-.07.36-1.35,1.06-3.83,2.1-2.48,1.04-5.69,2.27-9.61,3.69-3.93,1.42-8.1,2.84-12.51,4.28s-8.57,2.8-12.46,4.08c-3.89,1.28-7.06,2.31-9.51,3.08-2.45.77-3.67,1.16-3.67,1.16l-58.95,2.63L.48,78.78s-.12-.59-.35-1.78c-.23-1.19-.17-2.92.17-5.2.34-2.28,1.42-5.01,3.23-8.19,1.81-3.19,3.92-5.47,6.35-6.87s4.58-2.27,6.47-2.62c1.89-.35,2.92-.66,3.08-.94.17-.27,0-1.55-.5-3.84s-.82-5.46-.96-9.54c-.14-4.07.47-8.8,1.83-14.18,1.04-4.48,3.04-8.47,5.99-11.97,2.95-3.5,6.57-6.39,10.86-8.67,4.29-2.28,8.97-3.79,14.03-4.55,5.07-.76,10.2-.54,15.39.64,4.21.97,7.83,2.45,10.84,4.44,3.02,1.99,5.58,4.23,7.68,6.71,2.11,2.48,3.81,4.86,5.11,7.16s2.27,4.18,2.91,5.66c.64,1.48,1.1,2.26,1.37,2.33.27.08.91-.08,1.91-.48,1-.4,2.36-.7,4.08-.91,1.72-.21,3.72-.03,6.01.53,2.29.56,4.85,1.8,7.68,3.72,2.92,1.91,5.05,3.94,6.39,6.1s2.25,4.2,2.73,6.13c.49,1.93.76,3.56.82,4.89.06,1.33.23,2.07.5,2.24Z"/>
      <path class="cls-2" d="M111.2,88.21s-.66.65-1.98,1.95c-1.32,1.3-3.29,2.72-5.93,4.26-2.64,1.54-5.89,2.61-9.77,3.23-4.14.72-7.74.86-10.82.42-3.08-.44-5.48-.98-7.19-1.61s-2.57-.95-2.57-.95c0,0-.33.46-1,1.38-.67.92-1.95,2.04-3.84,3.36s-4.58,2.6-8.08,3.82c-2.79,1.01-5.83,1.59-9.1,1.74s-6.48-.07-9.61-.64c-3.13-.57-5.83-1.51-8.11-2.83-2.46-1.4-4.36-2.89-5.72-4.47-1.36-1.58-2.28-2.94-2.78-4.07-.49-1.13-.74-1.7-.74-1.7,0,0-.96-.05-2.87-.14s-4.19-.39-6.82-.89c-2.64-.5-4.96-1.38-6.97-2.62-2.64-1.57-4.45-3.37-5.43-5.41-.98-2.04-1.52-3.81-1.63-5.31-.11-1.5-.17-2.25-.17-2.25,0,0,1.02.58,3.07,1.73,2.05,1.15,4.99,1.91,8.82,2.27,2.68.32,4.91.25,6.71-.23,1.8-.48,3.19-1.03,4.18-1.65s1.58-.94,1.75-.94c.36.07,1.16.61,2.4,1.62,1.24,1.01,2.91,2.15,5.01,3.44s4.61,2.34,7.53,3.19c2.92.85,6.24,1.14,9.95.89,4.86-.31,8.65-.96,11.35-1.97,2.7-1.01,4.59-1.96,5.66-2.85,1.07-.89,1.6-1.34,1.6-1.34,0,0,.53.35,1.58,1.06s2.57,1.44,4.55,2.19c1.98.75,4.45,1.24,7.38,1.47,2.94.22,6.29-.15,10.06-1.11,4.03-1.07,7.13-2.29,9.28-3.67,2.16-1.38,3.65-2.58,4.5-3.59s1.26-1.52,1.26-1.52l3.72-.1c2.48-.07,5.6-.25,9.35-.55,3.76-.3,7.57-.8,11.44-1.51,3.78-.7,6.93-1.71,9.44-3.02s4.39-2.48,5.63-3.51c1.24-1.03,1.86-1.55,1.86-1.55,0,0,.13.53.4,1.58.27,1.05.4,2.42.38,4.11-.01,1.69-.4,3.48-1.16,5.37s-2.08,3.68-3.95,5.36c-3.25,2.72-6.76,4.65-10.52,5.79-3.76,1.14-7.32,1.83-10.68,2.07-3.36.24-6.11.25-8.25.04-2.14-.21-3.21-.32-3.21-.32Z"/>
    </g>
  </g>
</svg>