<?xml version="1.0" encoding="UTF-8"?>
<svg id="_レイヤー_2" data-name="レイヤー_2" xmlns="http://www.w3.org/2000/svg" viewBox="0 0 93.19 65.93">
  <defs>
    <style>
      .cls-1 {
        fill: #e4eaee;
      }

      .cls-2 {
        fill: #bacdd2;
      }
    </style>
  </defs>
  <g id="TOP_PC">
    <g>
      <path class="cls-1" d="M14.98,32.86c-.33.33-.91.5-1.74.5s-1.86.08-3.07.25c-1.22.17-2.6.69-4.15,1.58-1.77,1-3.07,2.15-3.9,3.45-.83,1.3-1.36,2.51-1.58,3.61-.22,1.11-.28,1.94-.17,2.49.06.22.87.62,2.45,1.2,1.58.58,3.61,1.26,6.11,2.04,2.49.77,5.14,1.55,7.93,2.33s5.43,1.51,7.89,2.2c2.46.69,4.47,1.25,6.02,1.66,1.55.42,2.33.62,2.33.62h36.88l23.01-7.14s.06-.37.17-1.12c.11-.75.03-1.83-.25-3.24s-1.02-3.09-2.24-5.03c-1.22-1.94-2.6-3.31-4.15-4.11-1.55-.8-2.92-1.29-4.11-1.45s-1.84-.33-1.95-.5c-.11-.17-.04-.97.21-2.41.25-1.44.36-3.43.33-5.98-.03-2.55-.54-5.48-1.54-8.81-.78-2.77-2.13-5.21-4.07-7.31-1.94-2.1-4.28-3.81-7.02-5.11S62.64.47,59.46.14c-3.18-.33-6.38-.06-9.59.83-2.6.72-4.82,1.74-6.65,3.07-1.83,1.33-3.36,2.8-4.61,4.4-1.25,1.61-2.24,3.14-2.99,4.61-.75,1.47-1.3,2.67-1.66,3.61-.36.94-.62,1.44-.79,1.5-.17.06-.57-.03-1.2-.25-.64-.22-1.5-.37-2.58-.46s-2.33.08-3.74.5c-1.41.42-2.98,1.26-4.69,2.53-1.77,1.27-3.05,2.6-3.82,3.99s-1.29,2.69-1.54,3.9c-.25,1.22-.37,2.24-.37,3.07s-.08,1.3-.25,1.41Z"/>
      <path class="cls-2" d="M24.11,56.62s.43.39,1.29,1.16c.86.78,2.13,1.61,3.82,2.49,1.69.89,3.75,1.47,6.19,1.74,2.6.33,4.86.32,6.77-.04,1.91-.36,3.39-.76,4.44-1.2,1.05-.44,1.58-.66,1.58-.66,0,0,.22.28.66.83.44.55,1.27,1.22,2.49,1.99,1.22.77,2.94,1.5,5.15,2.16,1.77.55,3.68.83,5.73.83s4.04-.22,5.98-.66,3.6-1.11,4.98-1.99c1.5-.94,2.64-1.92,3.45-2.95.8-1.02,1.34-1.9,1.62-2.62.28-.72.42-1.08.42-1.08,0,0,.6-.06,1.79-.17s2.6-.36,4.24-.75c1.63-.39,3.06-1,4.28-1.83,1.61-1.05,2.69-2.23,3.24-3.53.55-1.3.84-2.42.87-3.36.03-.94.04-1.41.04-1.41,0,0-.62.39-1.87,1.16s-3.06,1.33-5.44,1.66c-1.66.28-3.06.29-4.19.04-1.14-.25-2.02-.55-2.66-.91-.64-.36-1.01-.54-1.12-.54-.22.06-.71.42-1.45,1.08s-1.76,1.43-3.03,2.28-2.81,1.59-4.61,2.2c-1.8.61-3.86.89-6.19.83-3.05-.06-5.43-.36-7.14-.91-1.72-.55-2.92-1.09-3.61-1.62-.69-.53-1.04-.79-1.04-.79,0,0-.32.24-.96.71-.64.47-1.56.97-2.78,1.5-1.22.53-2.74.9-4.57,1.12-1.83.22-3.93.08-6.31-.42-2.55-.55-4.51-1.23-5.9-2.04-1.38-.8-2.35-1.51-2.91-2.12l-.83-.91s-.78.01-2.33.04c-1.55.03-3.5,0-5.86-.08-2.35-.08-4.75-.29-7.19-.62-2.38-.33-4.38-.87-5.98-1.62s-2.81-1.43-3.61-2.04c-.8-.61-1.2-.91-1.2-.91,0,0-.07.33-.21,1s-.18,1.52-.12,2.58.35,2.16.87,3.32,1.4,2.24,2.62,3.24c2.1,1.61,4.35,2.71,6.73,3.32,2.38.61,4.62.94,6.73,1,2.1.06,3.82-.01,5.15-.21s1.99-.29,1.99-.29Z"/>
    </g>
  </g>
</svg>