<?xml version="1.0" encoding="UTF-8"?>
<svg id="_レイヤー_2" data-name="レイヤー_2" xmlns="http://www.w3.org/2000/svg" viewBox="0 0 296.21 58.68">
  <defs>
    <style>
      .cls-1 {
        fill: #fff;
      }
    </style>
  </defs>
  <g id="TOP_PC">
    <g id="contact_xFF0B_FAQ">
      <g>
        <path class="cls-1" d="M41.69,58.54H15.05c-8.79,0-15.05-6.48-15.05-14.62V14.62C0,5.9,6.7,0,14.91,0h26.86c1.73,0,2.59.79,2.59,3.02s-.86,2.95-2.59,2.95H15.34c-5.04,0-9.29,3.46-9.29,9.07v28.44c0,5.04,3.82,9,9.36,9h26.28c1.73,0,2.66.79,2.66,3.02s-.94,3.02-2.66,3.02Z"/>
        <path class="cls-1" d="M75.46,58.68h-7.34c-8.71,0-15.84-6.7-15.84-16.13v-11.23c0-9.5,7.13-16.2,15.84-16.2h7.34c9.14,0,15.91,7.34,15.91,16.13v11.31c0,8.78-6.77,16.13-15.91,16.13ZM85.61,31.61c0-5.76-4.54-10.95-10.51-10.95h-6.55c-5.91,0-10.51,4.61-10.51,11.09v10.37c0,6.41,4.61,10.95,10.51,10.95h6.55c5.98,0,10.51-5.04,10.51-10.87v-10.58Z"/>
        <path class="cls-1" d="M135.43,58.61c-2.16,0-2.88-.79-2.88-2.52v-24.34c0-5.76-4.46-10.8-10.37-10.8h-16.99v35.14c0,1.73-.79,2.52-2.95,2.52s-2.95-.79-2.95-2.52V15.19h23.76c8.71,0,15.34,7.42,15.34,15.77v25.13c0,1.73-.79,2.52-2.95,2.52Z"/>
        <path class="cls-1" d="M171.43,21.39h-8.86v34.63c0,1.73-.79,2.59-3.02,2.59s-3.02-.86-3.02-2.59V21.39h-9.22c-1.66,0-2.45-.72-2.45-2.88s.79-2.88,2.45-2.88h9.22V2.74c0-1.73.72-2.66,3.02-2.66s3.02.94,3.02,2.66v12.89h8.86c1.66,0,2.52.72,2.52,2.88s-.86,2.88-2.52,2.88Z"/>
        <path class="cls-1" d="M207.79,58.54h-17.14c-6.26,0-10.94-4.68-10.94-10.87v-3.6c0-6.26,4.61-10.87,10.94-10.87h22.47v-6.62c0-3.38-2.52-5.98-5.9-5.98h-24.34c-1.15,0-2.16-1.08-2.16-2.67s1.01-2.66,2.16-2.66h25.27c6.26,0,10.87,4.61,10.87,10.87v21.46c0,6.26-4.97,10.95-11.23,10.95ZM213.12,38.24h-21.6c-3.38,0-6.12,2.66-6.12,6.12v2.88c0,3.46,2.74,5.98,6.12,5.98h15.63c3.46,0,5.98-2.52,5.98-5.98v-9Z"/>
        <path class="cls-1" d="M259.92,58.61h-19.44c-8.21,0-14.26-6.19-14.26-13.75v-15.91c0-8.21,6.26-13.68,13.9-13.68h19.87c1.58,0,2.45.72,2.45,2.81s-.86,2.81-2.45,2.81h-18.94c-4.82,0-8.93,3.31-8.93,8.71v14.55c0,4.82,3.74,8.71,9,8.71h18.79c1.66,0,2.52.72,2.52,2.88s-.86,2.88-2.52,2.88Z"/>
        <path class="cls-1" d="M293.69,21.39h-8.86v34.63c0,1.73-.79,2.59-3.02,2.59s-3.02-.86-3.02-2.59V21.39h-9.22c-1.66,0-2.45-.72-2.45-2.88s.79-2.88,2.45-2.88h9.22V2.74c0-1.73.72-2.66,3.02-2.66s3.02.94,3.02,2.66v12.89h8.86c1.66,0,2.52.72,2.52,2.88s-.86,2.88-2.52,2.88Z"/>
      </g>
    </g>
  </g>
</svg>