<?xml version="1.0" encoding="UTF-8"?>
<svg id="_レイヤー_2" data-name="レイヤー_2" xmlns="http://www.w3.org/2000/svg" viewBox="0 0 16.03 4.72">
  <defs>
    <style>
      .cls-1 {
        fill: #fff;
      }
    </style>
  </defs>
  <g id="TOP_PC">
    <g id="contact_xFF0B_FAQ">
      <g id="_ご依頼について" data-name="ご依頼について">
        <path class="cls-1" d="M12.25,4.6c-.26.13-.49.15-.67.05-.18-.1-.27-.3-.27-.61v-1.26H.43c-.12,0-.22-.04-.31-.13s-.13-.19-.13-.31c0-.13.04-.24.13-.32.08-.08.19-.13.31-.13h10.88V.68c0-.32.09-.53.27-.62.18-.09.4-.07.67.06l3.35,1.69c.29.13.43.31.43.54s-.14.4-.43.56l-3.35,1.69Z"/>
      </g>
    </g>
  </g>
</svg>