<?xml version="1.0" encoding="UTF-8"?>
<svg id="_レイヤー_2" data-name="レイヤー_2" xmlns="http://www.w3.org/2000/svg" viewBox="0 0 136.54 18.32">
  <defs>
    <style>
      .cls-1 {
        fill: #fff;
      }
    </style>
  </defs>
  <g id="TOP_PC">
    <g id="contact_xFF0B_FAQ">
      <g id="_ご依頼について" data-name="ご依頼について">
        <g>
          <path class="cls-1" d="M10.88,8.18c-.66,0-.86-.24-.86-.74v-1.7c0-1.72-.56-2.28-2.28-2.28H.7c-.38,0-.7-.34-.7-.88s.32-.86.7-.86h7.26c2.36,0,3.78,1.42,3.78,3.78v1.94c0,.5-.22.74-.86.74ZM15.36,17.66H1.66c-.84,0-1.5-.66-1.5-1.5v-6.76c0-.5.2-.76.86-.76s.86.26.86.76v5.96c0,.32.24.56.56.56h12.92c.5,0,.76.22.76.88s-.26.86-.76.86ZM14.04,3.7c-.14,0-.26-.08-.38-.24l-1.26-1.9c-.08-.1-.12-.22-.12-.32,0-.28.44-.6.72-.6.14,0,.28.08.38.24l1.26,1.92c.08.1.12.22.12.32,0,.28-.44.58-.72.58ZM16.72,3.68c-.14,0-.26-.08-.38-.24l-1.26-1.9c-.08-.1-.12-.22-.12-.32,0-.28.44-.58.72-.58.14,0,.26.08.38.24l1.26,1.9c.08.1.12.22.12.32,0,.28-.44.58-.72.58Z"/>
          <path class="cls-1" d="M23.52.96l-2.92,9.02c-.12.34-.3.52-.62.52-.38,0-1.04-.2-1.04-.66,0-.1.02-.2.06-.32L21.9.62c.12-.36.34-.56.72-.56s.96.14.96.58c0,.1-.02.2-.06.32ZM21.94,18.08c-.62,0-.82-.22-.82-.7v-8.54c0-.48.2-.72.82-.72s.82.24.82.72v8.54c0,.48-.22.7-.82.7ZM36.48,3.64h-4.86l-5.98,7.76c-.14.18-.26.26-.42.26-.32,0-.78-.54-.78-.86,0-.16.06-.3.18-.46l5.12-6.7h-4.5c-.44,0-.66-.18-.66-.76s.22-.78.66-.78h4.78V.72c0-.48.2-.72.82-.72s.82.24.82.72v1.38h4.82c.44,0,.68.2.68.78s-.24.76-.68.76ZM32.2,16.92l-5.94,1.14c-.08.02-.14.02-.2.02-.46,0-.58-.5-.58-.88,0-.36.18-.54.52-.6l1.3-.26v-6.56c0-.44.18-.68.78-.68s.78.24.78.68v6.26l3.08-.6c.08-.02.14-.02.2-.02.3,0,.48.18.56.62.02.1.02.2.02.28,0,.36-.18.54-.52.6ZM36,17.86c-.26,0-.44-.14-.56-.42l-4.8-11.14c-.06-.12-.08-.24-.08-.34,0-.4.6-.66.94-.66.26,0,.42.14.54.42l4.84,11.14c.06.12.08.24.08.34,0,.4-.62.66-.96.66ZM37.04,7.08l-1.56,2.68c-.12.2-.26.32-.44.32-.32,0-.88-.4-.88-.74,0-.1.04-.22.12-.36l1.48-2.6c.12-.22.28-.34.5-.34.32,0,.9.32.9.68,0,.1-.04.22-.12.36Z"/>
          <path class="cls-1" d="M47.6,3.08h-3.08v1.9h2.02c.84,0,1.38.54,1.38,1.38v4.18c0,.84-.54,1.38-1.38,1.38h-2.02v5.48c0,.42-.18.62-.72.62s-.72-.2-.72-.62v-4.84l-2.8,4.74c-.12.2-.26.32-.46.32-.32,0-.88-.38-.88-.74,0-.12.04-.24.12-.38l2.74-4.58h-.82c-.84,0-1.38-.54-1.38-1.38v-4.18c0-.84.54-1.38,1.38-1.38h2.1v-1.9h-3.36c-.4,0-.58-.16-.58-.68s.18-.68.58-.68h3.36V.64c0-.42.18-.64.72-.64s.72.22.72.64v1.08h3.08c.4,0,.6.18.6.68s-.2.68-.6.68ZM43.08,6.32h-2.08v4.28h2.08v-4.28ZM46.52,6.32h-2v4.28h2v-4.28ZM47.7,17.44c-.16,0-.32-.12-.44-.3l-1.92-2.88c-.08-.14-.14-.26-.14-.38,0-.32.52-.74.84-.74.16,0,.3.1.42.28l1.94,2.88c.1.14.14.26.14.38,0,.34-.52.76-.84.76ZM56.54,1.76h-2.94l-.58,1.92h2.22c.84,0,1.38.44,1.38,1.28v9.56c0,.84-.54,1.26-1.38,1.26h-4.76c-.84,0-1.38-.42-1.38-1.26V4.96c0-.84.54-1.28,1.38-1.28h1.04l.6-1.92h-2.9c-.4,0-.58-.16-.58-.68s.18-.68.58-.68h7.32c.4,0,.6.18.6.68s-.2.68-.6.68ZM51.32,16.84l-.56,1.1c-.12.24-.28.38-.5.38-.3,0-.88-.26-.88-.62,0-.1.04-.2.1-.32l.58-1.1c.12-.24.26-.36.48-.36.32,0,.88.24.88.6,0,.1-.04.2-.1.32ZM55.18,5h-4.66v2.24h4.66v-2.24ZM55.18,8.56h-4.66v2.28h4.66v-2.28ZM55.18,12.16h-4.66v2.26h4.66v-2.26ZM55.52,18.32c-.22,0-.38-.14-.5-.38l-.56-1.1c-.06-.12-.1-.22-.1-.32,0-.36.56-.6.88-.6.22,0,.36.12.48.36l.58,1.12c.06.12.1.22.1.32,0,.34-.58.6-.88.6Z"/>
          <path class="cls-1" d="M61.14,18.14c-.66,0-.86-.24-.86-.74V1.22c0-.5.2-.76.86-.76s.86.26.86.76v16.18c0,.5-.22.74-.86.74ZM75.2,8.44c-.66,0-.86-.24-.86-.74v-3.14c0-.32-.24-.56-.56-.56h-7.78c-.38,0-.7-.34-.7-.86s.32-.86.7-.86h8.56c.84,0,1.5.66,1.5,1.5v3.92c0,.5-.22.74-.86.74ZM75.26,17.44h-8.28c-.84,0-1.5-.66-1.5-1.5v-6.78c0-.48.2-.74.84-.74s.86.26.86.74v5.94c0,.32.24.56.56.56h7.52c.52,0,.78.24.78.9s-.26.88-.78.88Z"/>
          <path class="cls-1" d="M93.36,16.2l-2.28,1.36c-.16.1-.3.14-.44.14-.42,0-.86-.68-.86-1.08,0-.22.14-.4.4-.56l2.2-1.32c1.84-1.1,2.84-3.02,2.84-5.02,0-3.22-2.5-5.84-5.78-5.84-1.04,0-2.12.26-3.1.88l-6.18,3.9c-.16.1-.3.16-.44.16-.4,0-.78-.72-.78-1.08,0-.24.12-.44.38-.6l6.16-3.9c1.22-.78,2.62-1.1,3.98-1.1,2.54,0,5,1.24,6.42,3.62.74,1.24,1.12,2.64,1.12,4.04,0,2.48-1.2,4.94-3.64,6.4Z"/>
          <path class="cls-1" d="M105.98,17.5h-4.24c-.84,0-1.5-.66-1.5-1.5V1.84c0-.5.2-.76.86-.76s.88.26.88.76v13.36c0,.32.24.56.56.56h3.44c.5,0,.76.22.76.88s-.26.86-.76.86ZM114.7,17.5h-4.24c-.5,0-.76-.2-.76-.86s.26-.88.76-.88h3.44c.32,0,.56-.24.56-.56V1.84c0-.5.22-.76.88-.76s.86.26.86.76v14.16c0,.84-.66,1.5-1.5,1.5Z"/>
          <path class="cls-1" d="M135.78,3.08h-5.3c-3.36,0-6.1,3.14-6.1,6.54,0,3.6,3,6.52,6.58,6.52,1.48,0,2.86-.5,3.96-1.36.1-.08.3-.18.5-.18.48,0,.9.44.9.9,0,.24-.12.44-.22.54-1.4,1.14-3.2,1.82-5.14,1.82-4.54,0-8.3-3.7-8.3-8.24,0-2.68,1.42-5.06,3.5-6.54h-5.9c-.5,0-.74-.2-.74-.86s.24-.86.74-.86h15.52c.5,0,.76.22.76.86s-.26.86-.76.86Z"/>
        </g>
      </g>
    </g>
  </g>
</svg>