<?xml version="1.0" encoding="UTF-8"?>
<svg id="_レイヤー_2" data-name="レイヤー_2" xmlns="http://www.w3.org/2000/svg" viewBox="0 0 135.89 97.07">
  <defs>
    <style>
      .cls-1 {
        fill: none;
      }

      .cls-1, .cls-2 {
        stroke: #fdc511;
        stroke-linecap: round;
        stroke-miterlimit: 10;
        stroke-width: 4.45px;
      }

      .cls-2 {
        fill: #71cac6;
      }

      .cls-3 {
        fill: #fdc511;
      }
    </style>
  </defs>
  <g id="TOP_PC">
    <g id="FV">
      <g id="logoイメージ_xFF11_">
        <path class="cls-3" d="M113.43,0h-38.2c-2.07,0-3.93.81-5.36,2.15-.65-1.4-1.89-1.96-3.65-1.96H24.23C10.64.19,0,10.81,0,24.89v3.34c0,14.08,9.96,25.05,24.34,25.05h9.89v30.65c0,1.31.87,2.51,2.31,3.12H6.57c-2.72,0-4.08,1.31-4.08,5.01s1.36,5.01,4.08,5.01h43.81c6.88,0,12.84-2.59,17.12-6.88,1.06,3.56,4.08,6.07,7.73,6.07h38.09c13.13,0,22.57-10.66,22.57-24.15V24.04c0-14.33-10.09-24.04-22.46-24.04ZM79.25,10.06h16.18l-14.07,14.15c-1.7,1.75-3.42,2.98-5.15,3.72v-14.55c0-1.89,1.3-3.32,3.04-3.32ZM67.09,10.16v17.14c-1.24-.71-2.48-1.67-3.7-2.89l-14.2-14.2h17.02c.31,0,.59-.02.87-.05ZM24.79,43.38c-9.17,0-15.06-6.08-15.06-15.15v-2.98c0-8.71,6-15.03,14.94-15.03h9.55v33.17h-9.44ZM65.09,71.9c0,8.71-5.66,15.15-15.06,15.15h-9.26c1.41-.61,2.27-1.81,2.27-3.12v-30.65h7.1c8.83,0,14.94,6.8,14.94,15.75v2.86ZM50.38,43.38h-7.32v-24.47c0-1.04.31-1.56.83-1.56.42,0,.83.31,1.25.73l14.01,13.92c2.62,2.62,5.28,4.41,7.95,5.4v12.85c-4.27-4.26-10.08-6.87-16.72-6.87ZM76.21,82.88v-45.13c3.18-.91,6.32-2.87,9.3-5.85l13.81-13.71c.42-.42.83-.73,1.25-.73.52,0,.83.52.83,1.56v64.91c0,.84.36,1.64,1,2.27h-23.15c-1.74,0-3.04-1.42-3.04-3.32ZM126.78,71.28c0,8.41-5.75,14.92-14,14.92h-3.56c.63-.63.99-1.42.99-2.27V10.06h2.57c7.7,0,14,5.68,14,14.8v46.41Z"/>
        <line class="cls-2" x1="85.01" y1="50.25" x2="85.01" y2="56.04"/>
        <line class="cls-2" x1="93.92" y1="50.25" x2="93.92" y2="56.04"/>
        <path class="cls-1" d="M79.91,62.64c5.1,6.83,14.01,6.35,18.5-.16"/>
      </g>
    </g>
  </g>
</svg>