<?xml version="1.0" encoding="UTF-8"?>
<svg id="_レイヤー_2" data-name="レイヤー_2" xmlns="http://www.w3.org/2000/svg" viewBox="0 0 39.35 39.35">
  <defs>
    <style>
      .cls-1 {
        fill: #f58196;
      }
    </style>
  </defs>
  <g id="TOP_PC">
    <g id="_フッター" data-name="フッター">
      <path id="_インスタ" data-name="インスタ" class="cls-1" d="M11.53.14c-2.09.1-3.52.43-4.77.92-1.29.5-2.39,1.18-3.48,2.28-1.09,1.09-1.76,2.19-2.26,3.49-.48,1.25-.81,2.68-.91,4.78C.01,13.7,0,14.37,0,19.71c.01,5.34.03,6.01.14,8.11.1,2.09.43,3.52.92,4.77.5,1.29,1.18,2.39,2.28,3.48,1.1,1.09,2.19,1.76,3.49,2.26,1.25.48,2.68.81,4.78.91,2.09.09,2.77.11,8.11.1,5.34-.01,6.01-.03,8.11-.13,2.1-.1,3.52-.43,4.77-.92,1.29-.51,2.39-1.18,3.48-2.28s1.76-2.19,2.26-3.49c.48-1.25.81-2.68.91-4.78.09-2.1.11-2.77.1-8.11-.01-5.34-.03-6.01-.13-8.11s-.43-3.52-.92-4.77c-.51-1.29-1.18-2.39-2.28-3.48s-2.19-1.76-3.49-2.26c-1.25-.48-2.68-.81-4.78-.91S24.98,0,19.64,0c-5.34.01-6.01.03-8.11.14M11.76,35.71c-1.92-.08-2.96-.4-3.65-.67-.92-.35-1.57-.78-2.27-1.47s-1.12-1.34-1.48-2.26c-.27-.69-.59-1.73-.68-3.65-.1-2.07-.12-2.7-.13-7.95-.01-5.25,0-5.87.1-7.95.08-1.92.4-2.96.67-3.65.35-.92.78-1.57,1.47-2.27s1.34-1.12,2.26-1.48c.69-.27,1.73-.59,3.65-.68,2.07-.1,2.7-.12,7.95-.13,5.25-.01,5.88,0,7.95.1,1.92.08,2.96.4,3.65.67.92.35,1.57.78,2.27,1.47s1.12,1.34,1.48,2.26c.27.69.59,1.73.68,3.65.1,2.07.12,2.7.13,7.95,0,5.25,0,5.88-.1,7.95-.08,1.92-.4,2.96-.67,3.66-.35.92-.78,1.57-1.47,2.26s-1.34,1.12-2.26,1.48c-.69.27-1.73.59-3.65.68-2.07.1-2.7.12-7.95.13s-5.87,0-7.95-.1M27.8,9.16c0,1.3,1.06,2.36,2.36,2.36s2.36-1.06,2.36-2.36c0-1.3-1.06-2.36-2.36-2.36,0,0,0,0,0,0-1.3,0-2.36,1.06-2.36,2.36M9.57,19.69c.01,5.58,4.54,10.09,10.12,10.08,5.58-.01,10.09-4.54,10.08-10.12s-4.54-10.09-10.12-10.08c-5.58.01-10.09,4.54-10.08,10.12M13.12,19.69c0-3.62,2.92-6.56,6.55-6.57,3.62,0,6.56,2.92,6.57,6.55,0,3.62-2.92,6.56-6.55,6.57-3.62,0-6.56-2.92-6.57-6.54h0"/>
    </g>
  </g>
</svg>