<?xml version="1.0" encoding="UTF-8"?>
<svg id="_レイヤー_2" data-name="レイヤー_2" xmlns="http://www.w3.org/2000/svg" viewBox="0 0 220.69 225.13">
  <defs>
    <style>
      .cls-1 {
        fill: #71cac6;
      }
    </style>
  </defs>
  <g id="WORKS_遷移先_PC">
    <g id="_検索窓" data-name="検索窓">
      <g id="Make_x5F_smile">
        <path class="cls-1" d="M122.64,208.38c.59-.12.81.07.9.52l1.41,7.18c.26,1.32,1.34,2.26,2.81,1.98l2.61-.51-1.89-9.65c-.08-.43.07-.67.62-.77.57-.11.78.05.87.48l1.89,9.65,4.95-.97-1.89-9.63c-.09-.45.07-.71.65-.82.59-.12.83.06.92.51l2.19,11.18-10.75,2.11c-2.3.45-4.08-.97-4.49-3.07l-1.44-7.36c-.09-.45.07-.71.65-.82Z"/>
        <path class="cls-1" d="M112.4,209l4.75-.22c1.74-.08,3.1,1.15,3.18,2.87l.05,1c.08,1.74-1.13,3.08-2.89,3.16l-6.23.29.09,1.84c.04.94.78,1.62,1.72,1.58l6.75-.32c.32-.01.61.27.63.71.02.44-.25.75-.56.77l-7.01.33c-1.74.08-3.08-1.14-3.16-2.87l-.28-5.95c-.08-1.74,1.23-3.1,2.97-3.18ZM111.19,214.7l5.99-.28c.94-.04,1.66-.82,1.62-1.78l-.04-.8c-.05-.96-.84-1.62-1.78-1.58l-4.33.21c-.96.04-1.62.78-1.58,1.74l.12,2.5Z"/>
        <path class="cls-1" d="M99.26,208.34c.16.01.29.1.44.26l3.89,4.01c.72.74,1.12,1.54,1.03,2.61-.07.92-.54,1.74-1.56,2.42l-4.2,2.79c-.17.11-.32.17-.47.16-.36-.03-.83-.61-.81-.97.01-.18.15-.33.34-.46l4.13-2.72c.59-.39.97-.8,1.01-1.36.04-.54-.2-1.04-.64-1.48l-3.9-3.97c-.17-.17-.25-.32-.24-.5.03-.34.63-.83.97-.81ZM106.34,208.93c.6.05.78.28.74.76l-1.19,14.78c-.04.48-.26.7-.86.65-.6-.05-.8-.3-.76-.78l1.19-14.78c.04-.48.28-.68.87-.63Z"/>
        <path class="cls-1" d="M88.28,211.58l6.1,1.29.4-1.92c.21-.98-.35-1.81-1.27-2.01l-6.57-1.39c-.33-.07-.54-.42-.45-.87.1-.45.43-.69.76-.62l6.77,1.43c1.7.36,2.76,1.91,2.4,3.62l-1.22,5.79c-.36,1.7-1.95,2.74-3.65,2.38l-4.7-.99c-1.7-.36-2.73-1.88-2.37-3.59l.17-.78c.36-1.68,1.92-2.7,3.62-2.34ZM86.13,214.89c-.2.94.34,1.77,1.28,1.97l4.24.9c.92.2,1.77-.34,1.97-1.28l.48-2.27-5.87-1.24c-.94-.2-1.77.36-1.97,1.3l-.13.63Z"/>
        <path class="cls-1" d="M70.73,199.88l7.05,3.19c.44.2.57.48.31,1.06-.26.56-.57.67-1,.47l-7-3.17c-1.51-.69-2.87-.12-3.47,1.21l-.2.44c-.62,1.37-.11,2.85,1.32,3.49l4.15,1.88c2.31,1.05,3.16,3.45,2.18,5.6l-.23.51c-.97,2.15-3.42,2.99-5.61,2l-6.76-3.06c-.44-.2-.58-.51-.33-1.07.26-.58.58-.66,1.02-.46l6.69,3.03c1.44.65,2.84.12,3.45-1.21l.21-.46c.63-1.38.1-2.74-1.37-3.41l-4.12-1.87c-2.24-1.02-3.11-3.52-2.12-5.68l.22-.49c.97-2.15,3.36-3.05,5.62-2.02Z"/>
        <path class="cls-1" d="M53.79,189.59c.5.33.53.62.27,1l-4.08,6.08c-.75,1.11-.65,2.55.6,3.39l2.21,1.48,5.48-8.18c.25-.37.52-.42.99-.11.48.32.52.59.28.96l-5.48,8.18,4.19,2.81,5.47-8.16c.26-.38.54-.45,1.04-.12.5.33.54.63.29,1.01l-6.35,9.47-9.11-6.1c-1.94-1.3-2.21-3.57-1.01-5.35l4.18-6.23c.26-.38.54-.45,1.04-.12Z"/>
        <path class="cls-1" d="M42.5,196.72c.47.4.49.7.18,1.06l-.76.9c-.31.37-.62.42-1.09.02-.46-.39-.47-.71-.16-1.08l.76-.9c.31-.37.62-.39,1.08,0ZM50.8,186.87c.47.4.49.7.18,1.06l-6.73,7.98c-.31.37-.62.42-1.09.02-.46-.39-.47-.71-.16-1.08l6.73-7.98c.31-.37.62-.39,1.08,0Z"/>
        <path class="cls-1" d="M47.29,183.75c.47.44.45.75.12,1.1l-10.07,10.81c-.33.35-.65.41-1.12-.03-.47-.44-.45-.78-.13-1.13l10.07-10.81c.33-.35.65-.38,1.12.06Z"/>
        <path class="cls-1" d="M35.78,179.28l4.18,4.64,1.46-1.31c.74-.67.78-1.67.15-2.37l-4.5-4.99c-.23-.25-.19-.66.15-.97.34-.31.75-.3.98-.05l4.63,5.14c1.16,1.29,1.11,3.17-.18,4.34l-4.4,3.96c-1.29,1.16-3.19,1.06-4.35-.23l-3.21-3.57c-1.16-1.29-1.1-3.13.2-4.29l.59-.54c1.28-1.15,3.14-1.05,4.31.24ZM32.09,180.69c-.71.64-.76,1.63-.12,2.34l2.9,3.22c.63.7,1.63.77,2.34.12l1.72-1.55-4.01-4.46c-.64-.71-1.65-.75-2.36-.11l-.48.43Z"/>
        <path class="cls-1" d="M25.72,154.99c.3.52.2.79-.2,1.02l-6.35,3.64c-1.16.67-1.71,2-.97,3.3l1.32,2.31,8.54-4.89c.38-.22.66-.14.93.34.29.5.21.76-.18.98l-8.54,4.89,2.51,4.37,8.52-4.88c.4-.23.69-.17.99.36.3.52.21.8-.19,1.03l-9.89,5.67-5.45-9.51c-1.16-2.03-.39-4.18,1.47-5.24l6.51-3.73c.4-.23.69-.17.99.36Z"/>
        <path class="cls-1" d="M21.89,145.47l1.73,4.44c.63,1.62-.11,3.3-1.71,3.93l-.93.36c-1.62.63-3.28-.1-3.92-1.73l-2.27-5.81-1.71.67c-.88.34-1.29,1.25-.95,2.13l2.45,6.3c.12.3-.06.67-.47.83-.41.16-.79,0-.91-.29l-2.55-6.54c-.63-1.62.1-3.28,1.72-3.91l5.55-2.17c1.62-.63,3.33.18,3.96,1.8ZM16.09,146.14l2.18,5.59c.34.88,1.31,1.31,2.2.97l.75-.29c.89-.35,1.27-1.31.93-2.19l-1.58-4.04c-.35-.89-1.25-1.29-2.15-.94l-2.33.91Z"/>
        <path class="cls-1" d="M19.99,139.72c.15.58-.01.83-.48.95l-14.35,3.7c-.46.12-.75-.01-.9-.59-.15-.58.03-.85.49-.97l14.35-3.7c.46-.12.73.04.88.62ZM18.24,132.84c.04.15,0,.31-.1.5l-2.52,4.98c-.46.92-1.08,1.56-2.13,1.83-.89.23-1.82.06-2.8-.68l-4.01-3.06c-.16-.12-.27-.24-.31-.4-.09-.35.3-.99.65-1.08.17-.04.36.03.54.17l3.92,3.02c.57.43,1.08.65,1.62.51.52-.13.92-.53,1.19-1.09l2.48-4.97c.11-.21.22-.35.4-.39.33-.08.99.32,1.08.65Z"/>
        <path class="cls-1" d="M11.53,123.52l.82,6.18,1.94-.26c.99-.13,1.59-.94,1.47-1.87l-.88-6.66c-.04-.34.22-.65.67-.71.46-.06.79.18.83.51l.91,6.86c.23,1.72-.88,3.24-2.61,3.47l-5.87.78c-1.72.23-3.23-.92-3.46-2.65l-.63-4.76c-.23-1.72.87-3.2,2.59-3.43l.79-.1c1.7-.23,3.19.91,3.41,2.63ZM7.7,122.59c-.95.12-1.55.91-1.43,1.86l.57,4.3c.12.93.91,1.55,1.86,1.43l2.3-.3-.79-5.95c-.13-.95-.93-1.55-1.88-1.42l-.63.08Z"/>
        <path class="cls-1" d="M16.51,102.98l-.5,7.72c-.03.48-.25.71-.88.67-.62-.04-.82-.29-.79-.77l.49-7.66c.11-1.66-.91-2.72-2.36-2.82l-.48-.03c-1.5-.1-2.7.91-2.8,2.47l-.29,4.55c-.16,2.54-2.11,4.17-4.47,4.02l-.56-.04c-2.36-.15-4.01-2.14-3.86-4.54l.48-7.41c.03-.48.27-.72.89-.68.64.04.82.31.79.79l-.47,7.33c-.1,1.58.89,2.7,2.35,2.79l.5.03c1.52.1,2.6-.88,2.71-2.49l.29-4.51c.16-2.45,2.19-4.15,4.57-4l.54.03c2.35.15,4.04,2.06,3.88,4.54Z"/>
        <path class="cls-1" d="M19.94,83.41c-.13.59-.38.71-.83.62l-7.15-1.56c-1.31-.29-2.61.33-2.93,1.79l-.57,2.6,9.61,2.1c.43.09.58.33.46.88-.12.57-.36.7-.79.61l-9.61-2.1-1.08,4.92,9.59,2.1c.45.1.62.34.49.93-.13.59-.38.73-.83.64l-11.13-2.44,2.34-10.7c.5-2.29,2.52-3.36,4.61-2.9l7.32,1.6c.45.1.62.34.49.93Z"/>
        <path class="cls-1" d="M9.18,75.49c-.2.59-.47.71-.93.55l-1.12-.38c-.45-.15-.62-.42-.42-1.01.19-.57.49-.7.95-.54l1.12.38c.45.15.59.43.4,1ZM21.37,79.63c-.2.59-.47.71-.93.55l-9.88-3.35c-.45-.15-.62-.42-.42-1.01.19-.57.49-.7.95-.55l9.88,3.35c.46.15.59.43.4,1Z"/>
        <path class="cls-1" d="M23,75.2c-.24.59-.53.69-.98.51l-13.73-5.47c-.45-.18-.61-.46-.38-1.05.24-.59.56-.7,1.01-.53l13.73,5.47c.45.18.59.47.35,1.07Z"/>
        <path class="cls-1" d="M23.04,62.89l-2.85,5.55,1.74.9c.89.46,1.84.14,2.27-.7l3.07-5.98c.16-.3.55-.41.96-.2.41.21.55.6.39.9l-3.16,6.16c-.79,1.55-2.57,2.16-4.12,1.37l-5.27-2.71c-1.55-.79-2.13-2.6-1.33-4.15l2.19-4.27c.79-1.55,2.54-2.14,4.08-1.34l.71.37c1.53.79,2.1,2.56,1.31,4.11ZM20.42,59.94c-.85-.44-1.8-.14-2.24.72l-1.98,3.86c-.43.84-.14,1.8.72,2.24l2.06,1.06,2.74-5.34c.44-.85.12-1.81-.74-2.25l-.57-.29Z"/>
        <path class="cls-1" d="M42.43,45.14c-.39.46-.67.45-1.02.15l-5.56-4.76c-1.02-.87-2.46-.95-3.43.19l-1.73,2.02,7.48,6.4c.33.29.36.57,0,.99-.38.44-.65.45-.98.16l-7.48-6.4-3.28,3.83,7.46,6.39c.35.3.39.6,0,1.05-.39.46-.69.46-1.04.17l-8.66-7.42,7.13-8.33c1.52-1.78,3.81-1.77,5.43-.38l5.7,4.88c.35.3.39.59,0,1.05Z"/>
        <path class="cls-1" d="M50.13,38.42l-3.62,3.09c-1.32,1.13-3.16.98-4.27-.33l-.65-.76c-1.13-1.32-.99-3.13.35-4.27l4.75-4.05-1.19-1.4c-.61-.71-1.61-.81-2.32-.2l-5.14,4.38c-.24.21-.65.16-.94-.17-.29-.33-.27-.74-.02-.95l5.34-4.55c1.32-1.13,3.13-.99,4.26.34l3.86,4.53c1.13,1.32.92,3.21-.4,4.34ZM47.6,33.17l-4.56,3.89c-.71.61-.81,1.67-.19,2.4l.52.61c.62.73,1.65.77,2.37.16l3.3-2.81c.73-.62.81-1.61.19-2.34l-1.62-1.9Z"/>
        <path class="cls-1" d="M54.97,34.74c-.5.33-.79.26-1.05-.14l-8.19-12.35c-.27-.4-.23-.71.27-1.04s.82-.25,1.08.15l8.19,12.35c.27.4.2.71-.3,1.04ZM60.9,30.84c-.13.09-.29.1-.5.07l-5.53-.75c-1.03-.13-1.83-.51-2.43-1.41-.51-.77-.65-1.7-.27-2.87l1.58-4.79c.07-.19.14-.33.27-.42.3-.2,1.03-.04,1.23.26.1.15.09.35.01.56l-1.57,4.69c-.22.68-.26,1.23.04,1.7.3.45.8.7,1.42.76l5.51.71c.24.03.4.09.5.25.19.28.02,1.04-.26,1.23Z"/>
        <path class="cls-1" d="M67.49,21.41l-5.57,2.82.89,1.75c.45.89,1.41,1.19,2.25.76l5.99-3.04c.3-.15.69-.01.9.4s.09.8-.21.96l-6.17,3.13c-1.55.79-3.35.24-4.14-1.31l-2.68-5.28c-.79-1.55-.2-3.35,1.35-4.14l4.28-2.17c1.55-.79,3.31-.24,4.09,1.31l.36.71c.78,1.54.2,3.31-1.35,4.1ZM67.1,17.49c-.43-.86-1.38-1.16-2.23-.73l-3.87,1.96c-.84.42-1.16,1.38-.73,2.23l1.05,2.07,5.35-2.71c.86-.43,1.15-1.39.72-2.25l-.29-.57Z"/>
        <path class="cls-1" d="M88.48,19.22l-7.45,2.11c-.46.13-.75,0-.92-.61-.17-.6,0-.87.46-1l7.39-2.09c1.6-.45,2.26-1.76,1.87-3.17l-.13-.46c-.41-1.44-1.76-2.25-3.26-1.82l-4.39,1.24c-2.44.69-4.64-.6-5.28-2.87l-.15-.54c-.64-2.27.68-4.5,2.99-5.15l7.14-2.02c.46-.13.77,0,.94.61.17.62-.02.88-.48,1.01l-7.06,2c-1.52.43-2.25,1.74-1.85,3.14l.14.48c.41,1.46,1.69,2.16,3.25,1.72l4.35-1.23c2.37-.67,4.64.68,5.29,2.97l.15.52c.64,2.27-.6,4.49-2.98,5.17Z"/>
        <path class="cls-1" d="M108.05,16.01c-.6.07-.8-.12-.86-.58l-.88-7.27c-.16-1.33-1.17-2.36-2.66-2.18l-2.64.32,1.18,9.77c.05.44-.12.66-.68.73-.58.07-.78-.11-.83-.54l-1.18-9.77-5,.6,1.18,9.75c.05.46-.12.7-.71.77-.6.07-.82-.12-.88-.58l-1.37-11.32,10.88-1.31c2.32-.28,4,1.27,4.26,3.39l.9,7.44c.06.46-.12.7-.71.77Z"/>
        <path class="cls-1" d="M111.9,3.24c-.62,0-.82-.21-.83-.69l-.02-1.18c0-.48.19-.72.81-.73.6,0,.82.23.83.71l.02,1.18c0,.48-.21.7-.81.71ZM112.09,16.12c-.62,0-.82-.21-.83-.69l-.15-10.44c0-.48.19-.72.81-.73.6,0,.82.23.83.71l.15,10.44c0,.48-.21.7-.81.71Z"/>
        <path class="cls-1" d="M116.77,16.22c-.64-.03-.83-.28-.8-.76l.74-14.76c.02-.48.24-.73.88-.7.64.03.85.3.82.78l-.74,14.76c-.02.48-.26.71-.9.68Z"/>
        <path class="cls-1" d="M128.45,12.33l-6.17-.94-.3,1.94c-.15.99.46,1.79,1.38,1.93l6.64,1.01c.34.05.57.39.5.85s-.39.71-.73.66l-6.84-1.05c-1.72-.26-2.87-1.75-2.61-3.47l.89-5.85c.26-1.72,1.79-2.84,3.51-2.58l4.75.72c1.72.26,2.83,1.73,2.57,3.45l-.12.79c-.26,1.7-1.76,2.81-3.49,2.54ZM130.41,8.9c.15-.95-.44-1.75-1.39-1.89l-4.29-.66c-.93-.14-1.75.44-1.89,1.39l-.35,2.29,5.93.91c.95.14,1.75-.46,1.89-1.41l.1-.63Z"/>
        <path class="cls-1" d="M151.42,25.12c-.56-.23-.64-.5-.47-.92l2.75-6.78c.5-1.24.12-2.63-1.27-3.19l-2.46-1-3.7,9.12c-.17.41-.43.52-.94.31-.54-.22-.63-.47-.46-.88l3.7-9.11-4.67-1.9-3.69,9.1c-.17.43-.44.55-1,.33-.56-.22-.66-.5-.49-.93l4.29-10.56,10.15,4.12c2.17.88,2.88,3.05,2.08,5.03l-2.82,6.95c-.17.43-.44.55-1,.33Z"/>
        <path class="cls-1" d="M160.28,30.26l-4.09-2.43c-1.5-.89-1.95-2.67-1.07-4.15l.51-.86c.89-1.5,2.64-1.94,4.16-1.04l5.37,3.19.94-1.58c.48-.81.25-1.79-.56-2.26l-5.81-3.45c-.28-.16-.36-.56-.14-.94.22-.38.62-.49.89-.33l6.04,3.58c1.5.89,1.94,2.64,1.06,4.14l-3.04,5.12c-.89,1.5-2.74,1.91-4.23,1.02ZM164.43,26.17l-5.16-3.06c-.81-.48-1.84-.23-2.33.59l-.41.69c-.49.82-.19,1.81.61,2.29l3.73,2.21c.83.49,1.79.25,2.27-.58l1.28-2.15Z"/>
        <path class="cls-1" d="M165.37,33.66c-.48-.36-.5-.66-.21-1.04l8.97-11.8c.29-.38.59-.45,1.07-.09.48.36.51.69.22,1.07l-8.97,11.8c-.29.38-.6.42-1.08.06ZM171.02,37.97c-.13-.1-.19-.25-.23-.45l-1.12-5.47c-.21-1.01-.12-1.9.54-2.76.56-.73,1.4-1.18,2.62-1.2l5.04-.09c.2,0,.36.02.49.12.29.22.37.96.16,1.25-.11.14-.3.2-.53.2l-4.95.06c-.71.01-1.25.16-1.59.6-.33.43-.39.98-.25,1.59l1.14,5.44c.05.24.04.41-.07.55-.21.27-.98.36-1.25.16Z"/>
        <path class="cls-1" d="M182.09,41.04l-4.52-4.3-1.35,1.42c-.69.72-.65,1.73.03,2.38l4.87,4.63c.25.23.24.64-.07.98-.32.33-.73.36-.97.12l-5.02-4.77c-1.26-1.2-1.35-3.08-.15-4.34l4.08-4.29c1.2-1.26,3.09-1.31,4.35-.11l3.48,3.31c1.26,1.2,1.34,3.04.14,4.3l-.55.58c-1.19,1.25-3.05,1.29-4.31.09ZM185.65,39.35c.66-.7.64-1.69-.06-2.35l-3.15-2.99c-.68-.65-1.69-.64-2.35.06l-1.6,1.68,4.35,4.13c.7.66,1.7.62,2.36-.07l.44-.46Z"/>
        <path class="cls-1" d="M191.25,60.07l-4.51-6.29c-.28-.39-.26-.7.26-1.07.5-.36.82-.29,1.1.1l4.48,6.24c.97,1.35,2.43,1.53,3.61.68l.39-.28c1.22-.87,1.52-2.42.61-3.68l-2.66-3.71c-1.48-2.06-1.01-4.57.91-5.94l.46-.33c1.92-1.38,4.46-.89,5.86,1.06l4.33,6.03c.28.39.25.73-.25,1.09-.52.37-.83.28-1.11-.11l-4.28-5.96c-.92-1.28-2.4-1.53-3.59-.68l-.41.29c-1.23.89-1.46,2.33-.51,3.64l2.63,3.67c1.43,2,.93,4.6-1,5.98l-.44.31c-1.92,1.38-4.43.96-5.88-1.05Z"/>
        <path class="cls-1" d="M200.97,77.38c-.27-.54-.16-.79.25-1l6.53-3.32c1.2-.61,1.81-1.91,1.13-3.25l-1.21-2.37-8.78,4.46c-.39.2-.66.11-.92-.39-.26-.52-.17-.77.23-.97l8.78-4.46-2.28-4.5-8.76,4.45c-.41.21-.7.13-.97-.41-.27-.54-.17-.81.24-1.02l10.17-5.17,4.97,9.77c1.06,2.09.18,4.2-1.73,5.17l-6.69,3.4c-.41.21-.7.13-.97-.41Z"/>
        <path class="cls-1" d="M202.27,81.21c-.22-.58-.08-.84.37-1.01l9.76-3.68c.45-.17.74-.07.96.51.21.56.06.85-.38,1.02l-9.76,3.68c-.45.17-.73.04-.94-.52ZM214.32,76.67c-.22-.58-.08-.84.37-1.01l1.1-.42c.45-.17.74-.07.96.51.21.56.06.85-.38,1.02l-1.1.42c-.45.17-.73.04-.94-.52Z"/>
        <path class="cls-1" d="M203.82,85.65c-.2-.61-.03-.87.43-1.02l14.07-4.51c.46-.15.77-.04.96.57s.01.9-.44,1.04l-14.07,4.51c-.46.15-.75,0-.95-.6Z"/>
        <path class="cls-1" d="M211.62,95.22l-1.32-6.1-1.92.42c-.98.21-1.51,1.06-1.31,1.98l1.42,6.57c.07.33-.16.67-.61.77-.45.1-.8-.11-.87-.45l-1.47-6.76c-.37-1.7.61-3.3,2.31-3.67l5.79-1.26c1.7-.37,3.29.66,3.66,2.36l1.02,4.69c.37,1.7-.6,3.26-2.3,3.63l-.78.17c-1.68.36-3.25-.65-3.62-2.35ZM215.52,95.82c.94-.2,1.47-1.04,1.27-1.97l-.92-4.24c-.2-.92-1.04-1.47-1.97-1.27l-2.27.49,1.27,5.86c.2.94,1.06,1.47,1.99,1.27l.63-.14Z"/>
        <path class="cls-1" d="M207.75,121.21c.02-.6.24-.77.7-.76l7.32.19c1.34.04,2.5-.82,2.54-2.31l.07-2.66-9.83-.25c-.44-.01-.63-.22-.62-.78.01-.58.22-.75.66-.74l9.83.26.13-5.04-9.82-.25c-.46-.01-.67-.22-.66-.82s.24-.79.7-.78l11.39.3-.28,10.95c-.06,2.34-1.84,3.77-3.98,3.72l-7.5-.19c-.46-.01-.67-.22-.66-.82Z"/>
        <path class="cls-1" d="M206.26,131.42l.74-4.7c.27-1.72,1.76-2.8,3.46-2.53l.99.16c1.72.27,2.78,1.74,2.51,3.48l-.98,6.17,1.82.29c.93.15,1.75-.43,1.9-1.36l1.06-6.68c.05-.32.39-.55.83-.48.43.07.69.39.64.71l-1.1,6.94c-.27,1.72-1.74,2.78-3.46,2.51l-5.89-.93c-1.72-.27-2.79-1.84-2.51-3.56ZM211.6,133.77l.94-5.93c.15-.93-.47-1.79-1.41-1.95l-.79-.12c-.95-.15-1.76.49-1.91,1.42l-.68,4.29c-.15.95.43,1.75,1.38,1.9l2.47.39Z"/>
        <path class="cls-1" d="M203.06,144.2c.04-.15.16-.27.34-.38l4.68-3.05c.87-.57,1.72-.8,2.76-.51.89.25,1.61.87,2.08,2l1.93,4.66c.07.19.11.34.07.5-.1.35-.76.7-1.1.6-.17-.05-.3-.21-.38-.42l-1.87-4.58c-.27-.66-.6-1.1-1.14-1.25-.52-.15-1.06,0-1.57.35l-4.64,3.06c-.2.13-.36.19-.54.14-.33-.09-.7-.78-.6-1.11ZM205,137.37c.16-.58.43-.71.89-.58l14.27,4c.46.13.64.39.48.96-.16.58-.45.72-.92.59l-14.27-4c-.46-.13-.61-.4-.45-.98Z"/>
        <path class="cls-1" d="M204.17,155.62l2.42-5.75-1.81-.76c-.92-.39-1.85,0-2.21.87l-2.6,6.19c-.13.31-.52.46-.94.28-.42-.18-.59-.55-.46-.87l2.68-6.38c.67-1.6,2.4-2.35,4-1.68l5.46,2.29c1.6.67,2.32,2.43,1.65,4.03l-1.86,4.42c-.67,1.6-2.37,2.32-3.97,1.65l-.74-.31c-1.58-.67-2.29-2.39-1.62-4ZM207.01,158.35c.88.37,1.8,0,2.17-.89l1.68-4c.36-.87,0-1.8-.89-2.17l-2.14-.9-2.33,5.53c-.37.88.02,1.81.91,2.18l.59.25Z"/>
        <path class="cls-1" d="M189.33,170.59l4.51-6.29c.28-.39.58-.47,1.1-.1.5.36.54.69.26,1.08l-4.47,6.25c-.97,1.35-.67,2.79.52,3.64l.39.28c1.22.87,2.78.66,3.68-.61l2.66-3.71c1.48-2.07,4-2.43,5.92-1.05l.46.33c1.92,1.37,2.27,3.94.88,5.89l-4.32,6.04c-.28.39-.61.47-1.11.11-.52-.37-.53-.7-.25-1.09l4.27-5.97c.92-1.29.67-2.76-.51-3.61l-.41-.29c-1.24-.88-2.67-.63-3.61.68l-2.63,3.68c-1.43,2-4.05,2.36-5.99.98l-.44-.31c-1.92-1.37-2.34-3.89-.89-5.9Z"/>
        <path class="cls-1" d="M175.87,185.09c.43-.42.71-.39,1.03-.06l5.13,5.22c.94.96,2.37,1.15,3.44.1l1.9-1.86-6.9-7.02c-.31-.31-.31-.6.09-.99.41-.41.68-.39.99-.08l6.9,7.02,3.59-3.53-6.88-7.01c-.32-.33-.33-.62.09-1.05s.72-.4,1.05-.08l7.99,8.13-7.82,7.68c-1.67,1.64-3.95,1.44-5.45-.09l-5.26-5.35c-.32-.33-.33-.62.09-1.05Z"/>
        <path class="cls-1" d="M172.6,187.45c.49-.38.78-.33,1.08.05l6.43,8.23c.3.38.29.69-.2,1.07-.47.37-.79.32-1.09-.06l-6.43-8.23c-.29-.38-.26-.69.22-1.06ZM180.53,197.6c.49-.38.78-.33,1.08.05l.73.93c.3.38.29.69-.2,1.07-.47.37-.79.32-1.09-.06l-.73-.93c-.3-.38-.26-.69.21-1.06Z"/>
        <path class="cls-1" d="M168.81,190.27c.52-.37.82-.29,1.1.1l8.51,12.08c.28.39.26.72-.26,1.09-.52.37-.85.28-1.13-.11l-8.51-12.08c-.28-.39-.24-.71.29-1.08Z"/>
        <path class="cls-1" d="M162.08,200.61l5.39-3.14-.99-1.69c-.5-.86-1.48-1.11-2.29-.64l-5.81,3.38c-.29.17-.69.05-.92-.34s-.14-.8.15-.97l5.98-3.48c1.5-.88,3.33-.43,4.21,1.07l2.98,5.12c.88,1.5.39,3.34-1.11,4.21l-4.15,2.41c-1.5.88-3.29.43-4.16-1.07l-.4-.69c-.86-1.49-.39-3.29,1.12-4.17ZM162.7,204.5c.48.83,1.44,1.08,2.27.6l3.75-2.18c.81-.47,1.08-1.44.6-2.27l-1.17-2-5.19,3.02c-.83.48-1.07,1.46-.59,2.29l.32.55Z"/>
      </g>
    </g>
  </g>
</svg>