<?xml version="1.0" encoding="UTF-8"?>
<svg id="_レイヤー_2" data-name="レイヤー_2" xmlns="http://www.w3.org/2000/svg" viewBox="0 0 1322.41 27.75">
  <defs>
    <style>
      .cls-1 {
        fill: #fff;
      }
    </style>
  </defs>
  <g id="TOP_PC">
    <g id="_装飾" data-name="装飾">
      <g>
        <path class="cls-1" d="M20.7,24.81c-.78,0-1.29-.48-1.29-1.02V5.04c0-.3-.09-.45-.24-.45-.12,0-.24.09-.36.21l-3.99,3.96c-1.23,1.23-2.55,1.86-3.87,1.86s-2.52-.6-3.75-1.83L3.15,4.77c-.12-.12-.24-.21-.36-.21-.15,0-.24.15-.24.45v18.78c0,.54-.51,1.02-1.26,1.02s-1.29-.48-1.29-1.02V.81c0-.45.39-.81,1.02-.81s.99.18,1.29.48l6.12,6.12c.84.84,1.71,1.26,2.55,1.26s1.77-.42,2.64-1.32L19.65.48c.3-.3.69-.48,1.32-.48s.99.36.99.81v22.98c0,.54-.51,1.02-1.26,1.02Z"/>
        <path class="cls-1" d="M37.26,24.54h-7.14c-2.61,0-4.56-1.95-4.56-4.53v-1.5c0-2.61,1.92-4.53,4.56-4.53h9.36v-2.76c0-1.41-1.05-2.49-2.46-2.49h-10.14c-.48,0-.9-.45-.9-1.11s.42-1.11.9-1.11h10.53c2.61,0,4.53,1.92,4.53,4.53v8.94c0,2.61-2.07,4.56-4.68,4.56ZM39.48,16.08h-9c-1.41,0-2.55,1.11-2.55,2.55v1.2c0,1.44,1.14,2.49,2.55,2.49h6.51c1.44,0,2.49-1.05,2.49-2.49v-3.75Z"/>
        <path class="cls-1" d="M47.04,24.57c-.9,0-1.2-.33-1.2-1.05V1.29c0-.72.3-1.08,1.2-1.08s1.23.36,1.23,1.08v22.23c0,.72-.33,1.05-1.23,1.05ZM57.69,24.6c-.24,0-.45-.12-.69-.33l-6.3-5.52c-1.17-1.02-1.86-2.16-1.86-3.78,0-1.38.6-2.67,2.04-3.81l5.94-4.68c.24-.18.45-.3.69-.3.54,0,1.32.81,1.32,1.35,0,.27-.18.51-.45.72l-5.85,4.56c-.84.66-1.35,1.32-1.35,2.16s.42,1.53,1.14,2.13l6.3,5.46c.27.24.42.45.42.72,0,.51-.84,1.32-1.35,1.32Z"/>
        <path class="cls-1" d="M73.56,16.8h-9.36v2.94c0,1.5,1.08,2.55,2.49,2.55h10.08c.51,0,.93.45.93,1.14s-.42,1.14-.93,1.14h-10.38c-2.61,0-4.65-1.95-4.65-4.56v-8.88c0-2.61,2.01-4.62,4.62-4.62h7.2c2.61,0,4.59,1.92,4.59,4.53v1.2c0,2.58-1.98,4.56-4.59,4.56ZM75.69,11.28c0-1.44-1.05-2.49-2.49-2.49h-6.51c-1.41,0-2.49,1.05-2.49,2.49v3.48h9c1.44,0,2.49-1.08,2.49-2.52v-.96Z"/>
        <path class="cls-1" d="M104.49,24.54h-11.61c-.72,0-1.08-.3-1.08-1.26s.36-1.26,1.08-1.26h11.52c2.49,0,3.99-1.62,3.99-3.81v-.72c0-2.25-1.62-3.96-3.96-3.96h-6.84c-3.81,0-6.45-2.76-6.45-6.3v-.84c0-3.54,2.82-6.21,6.42-6.21h11.13c.72,0,1.11.33,1.11,1.26s-.39,1.26-1.11,1.26h-11.01c-2.37,0-3.96,1.59-3.96,3.78v.75c0,2.28,1.56,3.81,3.99,3.81h6.78c3.69,0,6.42,2.88,6.42,6.45v.81c0,3.54-2.7,6.24-6.42,6.24Z"/>
        <path class="cls-1" d="M135.18,24.57c-.9,0-1.17-.33-1.17-1.02v-10.98c0-2.01-1.32-3.72-3.57-3.72h-3.99v14.76c0,.66-.3.96-1.14.96s-1.14-.3-1.14-.96v-14.76h-7.56v14.73c0,.69-.3,1.02-1.2,1.02s-1.2-.33-1.2-1.02V6.48h16.44c3.51,0,5.73,2.61,5.73,5.82v11.25c0,.69-.3,1.02-1.2,1.02Z"/>
        <path class="cls-1" d="M141.84,5.25c-.93,0-1.23-.33-1.23-1.05v-1.77c0-.72.3-1.08,1.23-1.08s1.23.36,1.23,1.08v1.77c0,.72-.33,1.05-1.23,1.05ZM141.84,24.57c-.93,0-1.23-.33-1.23-1.05V7.86c0-.72.3-1.08,1.23-1.08s1.23.36,1.23,1.08v15.66c0,.72-.33,1.05-1.23,1.05Z"/>
        <path class="cls-1" d="M149.19,24.57c-.96,0-1.26-.36-1.26-1.08V1.32c0-.72.3-1.11,1.26-1.11s1.29.39,1.29,1.11v22.17c0,.72-.33,1.08-1.29,1.08Z"/>
        <path class="cls-1" d="M166.23,16.8h-9.36v2.94c0,1.5,1.08,2.55,2.49,2.55h10.08c.51,0,.93.45.93,1.14s-.42,1.14-.93,1.14h-10.38c-2.61,0-4.65-1.95-4.65-4.56v-8.88c0-2.61,2.01-4.62,4.62-4.62h7.2c2.61,0,4.59,1.92,4.59,4.53v1.2c0,2.58-1.98,4.56-4.59,4.56ZM168.36,11.28c0-1.44-1.05-2.49-2.49-2.49h-6.51c-1.41,0-2.49,1.05-2.49,2.49v3.48h9c1.44,0,2.49-1.08,2.49-2.52v-.96Z"/>
        <path class="cls-1" d="M197.49,24.54h-10.53c-1.26,0-2.25-.99-2.25-2.25V2.4c0-1.26.99-2.25,2.25-2.25h10.56c3.42,0,6.21,2.46,6.21,6.09v12.18c0,3.42-2.61,6.12-6.24,6.12ZM201.21,6.45c0-2.31-1.74-3.75-3.87-3.75h-9.27c-.48,0-.84.36-.84.84v17.61c0,.48.36.84.84.84h9.27c2.28,0,3.87-1.65,3.87-3.78V6.45Z"/>
        <path class="cls-1" d="M218.85,16.8h-9.36v2.94c0,1.5,1.08,2.55,2.49,2.55h10.08c.51,0,.93.45.93,1.14s-.42,1.14-.93,1.14h-10.38c-2.61,0-4.65-1.95-4.65-4.56v-8.88c0-2.61,2.01-4.62,4.62-4.62h7.2c2.61,0,4.59,1.92,4.59,4.53v1.2c0,2.58-1.98,4.56-4.59,4.56ZM220.98,11.28c0-1.44-1.05-2.49-2.49-2.49h-6.51c-1.41,0-2.49,1.05-2.49,2.49v3.48h9c1.44,0,2.49-1.08,2.49-2.52v-.96Z"/>
        <path class="cls-1" d="M237.75,24.57h-9.78c-.66,0-.99-.27-.99-1.14s.33-1.17.99-1.17h9.51c1.44,0,2.49-1.02,2.49-2.43v-.81c0-1.38-1.05-2.49-2.49-2.49h-6.12c-2.61,0-4.62-1.89-4.62-4.56v-.84c0-2.61,2.04-4.65,4.62-4.65h9.3c.66,0,1.02.3,1.02,1.17s-.36,1.14-1.02,1.14h-9c-1.41,0-2.52,1.02-2.52,2.43v.72c0,1.41,1.11,2.46,2.52,2.46h6.09c2.61,0,4.62,1.92,4.62,4.59v.93c0,2.61-2.04,4.65-4.62,4.65Z"/>
        <path class="cls-1" d="M247.83,5.25c-.93,0-1.23-.33-1.23-1.05v-1.77c0-.72.3-1.08,1.23-1.08s1.23.36,1.23,1.08v1.77c0,.72-.33,1.05-1.23,1.05ZM247.83,24.57c-.93,0-1.23-.33-1.23-1.05V7.86c0-.72.3-1.08,1.23-1.08s1.23.36,1.23,1.08v15.66c0,.72-.33,1.05-1.23,1.05Z"/>
        <path class="cls-1" d="M269.36,23.19c0,2.61-1.95,4.56-4.56,4.56h-7.38c-2.67,0-4.41-1.53-4.41-4.35v-.39c0-.69.3-1.05,1.2-1.05s1.2.36,1.2,1.05v.15c0,1.5.81,2.31,2.37,2.31h6.66c1.41,0,2.46-1.08,2.46-2.49v-4.14c-.66.36-1.5.57-2.52.57h-6.93c-2.55,0-4.5-1.77-4.47-4.56l.03-3.75c.03-2.61,1.86-4.59,4.47-4.59h7.2c2.61,0,4.71,1.92,4.71,4.53l-.03,12.15ZM266.9,11.34c0-1.41-1.05-2.52-2.49-2.52h-6.45c-1.44,0-2.55,1.08-2.55,2.52v3.3c0,1.59,1.08,2.52,2.52,2.52h6.39c1.53,0,2.58-.66,2.58-2.52v-3.3Z"/>
        <path class="cls-1" d="M287.75,24.57c-.9,0-1.2-.33-1.2-1.05v-10.14c0-2.4-1.86-4.5-4.32-4.5h-7.08v14.64c0,.72-.33,1.05-1.23,1.05s-1.23-.33-1.23-1.05V6.48h9.9c3.63,0,6.39,3.09,6.39,6.57v10.47c0,.72-.33,1.05-1.23,1.05Z"/>
        <path class="cls-1" d="M323.57,24.81c-.78,0-1.29-.48-1.29-1.02V5.04c0-.3-.09-.45-.24-.45-.12,0-.24.09-.36.21l-3.99,3.96c-1.23,1.23-2.55,1.86-3.87,1.86s-2.52-.6-3.75-1.83l-4.05-4.02c-.12-.12-.24-.21-.36-.21-.15,0-.24.15-.24.45v18.78c0,.54-.51,1.02-1.26,1.02s-1.29-.48-1.29-1.02V.81c0-.45.39-.81,1.02-.81s.99.18,1.29.48l6.12,6.12c.84.84,1.71,1.26,2.55,1.26s1.77-.42,2.64-1.32l6.03-6.06c.3-.3.69-.48,1.32-.48s.99.36.99.81v22.98c0,.54-.51,1.02-1.26,1.02Z"/>
        <path class="cls-1" d="M340.13,24.54h-7.14c-2.61,0-4.56-1.95-4.56-4.53v-1.5c0-2.61,1.92-4.53,4.56-4.53h9.36v-2.76c0-1.41-1.05-2.49-2.46-2.49h-10.14c-.48,0-.9-.45-.9-1.11s.42-1.11.9-1.11h10.53c2.61,0,4.53,1.92,4.53,4.53v8.94c0,2.61-2.07,4.56-4.68,4.56ZM342.35,16.08h-9c-1.41,0-2.55,1.11-2.55,2.55v1.2c0,1.44,1.14,2.49,2.55,2.49h6.51c1.44,0,2.49-1.05,2.49-2.49v-3.75Z"/>
        <path class="cls-1" d="M349.91,24.57c-.9,0-1.2-.33-1.2-1.05V1.29c0-.72.3-1.08,1.2-1.08s1.23.36,1.23,1.08v22.23c0,.72-.33,1.05-1.23,1.05ZM360.56,24.6c-.24,0-.45-.12-.69-.33l-6.3-5.52c-1.17-1.02-1.86-2.16-1.86-3.78,0-1.38.6-2.67,2.04-3.81l5.94-4.68c.24-.18.45-.3.69-.3.54,0,1.32.81,1.32,1.35,0,.27-.18.51-.45.72l-5.85,4.56c-.84.66-1.35,1.32-1.35,2.16s.42,1.53,1.14,2.13l6.3,5.46c.27.24.42.45.42.72,0,.51-.84,1.32-1.35,1.32Z"/>
        <path class="cls-1" d="M376.43,16.8h-9.36v2.94c0,1.5,1.08,2.55,2.49,2.55h10.08c.51,0,.93.45.93,1.14s-.42,1.14-.93,1.14h-10.38c-2.61,0-4.65-1.95-4.65-4.56v-8.88c0-2.61,2.01-4.62,4.62-4.62h7.2c2.61,0,4.59,1.92,4.59,4.53v1.2c0,2.58-1.98,4.56-4.59,4.56ZM378.56,11.28c0-1.44-1.05-2.49-2.49-2.49h-6.51c-1.41,0-2.49,1.05-2.49,2.49v3.48h9c1.44,0,2.49-1.08,2.49-2.52v-.96Z"/>
        <path class="cls-1" d="M407.36,24.54h-11.61c-.72,0-1.08-.3-1.08-1.26s.36-1.26,1.08-1.26h11.52c2.49,0,3.99-1.62,3.99-3.81v-.72c0-2.25-1.62-3.96-3.96-3.96h-6.84c-3.81,0-6.45-2.76-6.45-6.3v-.84c0-3.54,2.82-6.21,6.42-6.21h11.13c.72,0,1.11.33,1.11,1.26s-.39,1.26-1.11,1.26h-11.01c-2.37,0-3.96,1.59-3.96,3.78v.75c0,2.28,1.56,3.81,3.99,3.81h6.78c3.69,0,6.42,2.88,6.42,6.45v.81c0,3.54-2.7,6.24-6.42,6.24Z"/>
        <path class="cls-1" d="M438.05,24.57c-.9,0-1.17-.33-1.17-1.02v-10.98c0-2.01-1.32-3.72-3.57-3.72h-3.99v14.76c0,.66-.3.96-1.14.96s-1.14-.3-1.14-.96v-14.76h-7.56v14.73c0,.69-.3,1.02-1.2,1.02s-1.2-.33-1.2-1.02V6.48h16.44c3.51,0,5.73,2.61,5.73,5.82v11.25c0,.69-.3,1.02-1.2,1.02Z"/>
        <path class="cls-1" d="M444.71,5.25c-.93,0-1.23-.33-1.23-1.05v-1.77c0-.72.3-1.08,1.23-1.08s1.23.36,1.23,1.08v1.77c0,.72-.33,1.05-1.23,1.05ZM444.71,24.57c-.93,0-1.23-.33-1.23-1.05V7.86c0-.72.3-1.08,1.23-1.08s1.23.36,1.23,1.08v15.66c0,.72-.33,1.05-1.23,1.05Z"/>
        <path class="cls-1" d="M452.06,24.57c-.96,0-1.26-.36-1.26-1.08V1.32c0-.72.3-1.11,1.26-1.11s1.29.39,1.29,1.11v22.17c0,.72-.33,1.08-1.29,1.08Z"/>
        <path class="cls-1" d="M469.1,16.8h-9.36v2.94c0,1.5,1.08,2.55,2.49,2.55h10.08c.51,0,.93.45.93,1.14s-.42,1.14-.93,1.14h-10.38c-2.61,0-4.65-1.95-4.65-4.56v-8.88c0-2.61,2.01-4.62,4.62-4.62h7.2c2.61,0,4.59,1.92,4.59,4.53v1.2c0,2.58-1.98,4.56-4.59,4.56ZM471.23,11.28c0-1.44-1.05-2.49-2.49-2.49h-6.51c-1.41,0-2.49,1.05-2.49,2.49v3.48h9c1.44,0,2.49-1.08,2.49-2.52v-.96Z"/>
        <path class="cls-1" d="M500.36,24.54h-10.53c-1.26,0-2.25-.99-2.25-2.25V2.4c0-1.26.99-2.25,2.25-2.25h10.56c3.42,0,6.21,2.46,6.21,6.09v12.18c0,3.42-2.61,6.12-6.24,6.12ZM504.08,6.45c0-2.31-1.74-3.75-3.87-3.75h-9.27c-.48,0-.84.36-.84.84v17.61c0,.48.36.84.84.84h9.27c2.28,0,3.87-1.65,3.87-3.78V6.45Z"/>
        <path class="cls-1" d="M521.72,16.8h-9.36v2.94c0,1.5,1.08,2.55,2.49,2.55h10.08c.51,0,.93.45.93,1.14s-.42,1.14-.93,1.14h-10.38c-2.61,0-4.65-1.95-4.65-4.56v-8.88c0-2.61,2.01-4.62,4.62-4.62h7.2c2.61,0,4.59,1.92,4.59,4.53v1.2c0,2.58-1.98,4.56-4.59,4.56ZM523.85,11.28c0-1.44-1.05-2.49-2.49-2.49h-6.51c-1.41,0-2.49,1.05-2.49,2.49v3.48h9c1.44,0,2.49-1.08,2.49-2.52v-.96Z"/>
        <path class="cls-1" d="M540.62,24.57h-9.78c-.66,0-.99-.27-.99-1.14s.33-1.17.99-1.17h9.51c1.44,0,2.49-1.02,2.49-2.43v-.81c0-1.38-1.05-2.49-2.49-2.49h-6.12c-2.61,0-4.62-1.89-4.62-4.56v-.84c0-2.61,2.04-4.65,4.62-4.65h9.3c.66,0,1.02.3,1.02,1.17s-.36,1.14-1.02,1.14h-9c-1.41,0-2.52,1.02-2.52,2.43v.72c0,1.41,1.11,2.46,2.52,2.46h6.09c2.61,0,4.62,1.92,4.62,4.59v.93c0,2.61-2.04,4.65-4.62,4.65Z"/>
        <path class="cls-1" d="M550.7,5.25c-.93,0-1.23-.33-1.23-1.05v-1.77c0-.72.3-1.08,1.23-1.08s1.23.36,1.23,1.08v1.77c0,.72-.33,1.05-1.23,1.05ZM550.7,24.57c-.93,0-1.23-.33-1.23-1.05V7.86c0-.72.3-1.08,1.23-1.08s1.23.36,1.23,1.08v15.66c0,.72-.33,1.05-1.23,1.05Z"/>
        <path class="cls-1" d="M572.24,23.19c0,2.61-1.95,4.56-4.56,4.56h-7.38c-2.67,0-4.41-1.53-4.41-4.35v-.39c0-.69.3-1.05,1.2-1.05s1.2.36,1.2,1.05v.15c0,1.5.81,2.31,2.37,2.31h6.66c1.41,0,2.46-1.08,2.46-2.49v-4.14c-.66.36-1.5.57-2.52.57h-6.93c-2.55,0-4.5-1.77-4.47-4.56l.03-3.75c.03-2.61,1.86-4.59,4.47-4.59h7.2c2.61,0,4.71,1.92,4.71,4.53l-.03,12.15ZM569.78,11.34c0-1.41-1.05-2.52-2.49-2.52h-6.45c-1.44,0-2.55,1.08-2.55,2.52v3.3c0,1.59,1.08,2.52,2.52,2.52h6.39c1.53,0,2.58-.66,2.58-2.52v-3.3Z"/>
        <path class="cls-1" d="M590.63,24.57c-.9,0-1.2-.33-1.2-1.05v-10.14c0-2.4-1.86-4.5-4.32-4.5h-7.08v14.64c0,.72-.33,1.05-1.23,1.05s-1.23-.33-1.23-1.05V6.48h9.9c3.63,0,6.39,3.09,6.39,6.57v10.47c0,.72-.33,1.05-1.23,1.05Z"/>
        <path class="cls-1" d="M626.45,24.81c-.78,0-1.29-.48-1.29-1.02V5.04c0-.3-.09-.45-.24-.45-.12,0-.24.09-.36.21l-3.99,3.96c-1.23,1.23-2.55,1.86-3.87,1.86s-2.52-.6-3.75-1.83l-4.05-4.02c-.12-.12-.24-.21-.36-.21-.15,0-.24.15-.24.45v18.78c0,.54-.51,1.02-1.26,1.02s-1.29-.48-1.29-1.02V.81c0-.45.39-.81,1.02-.81s.99.18,1.29.48l6.12,6.12c.84.84,1.71,1.26,2.55,1.26s1.77-.42,2.64-1.32l6.03-6.06c.3-.3.69-.48,1.32-.48s.99.36.99.81v22.98c0,.54-.51,1.02-1.26,1.02Z"/>
        <path class="cls-1" d="M643.01,24.54h-7.14c-2.61,0-4.56-1.95-4.56-4.53v-1.5c0-2.61,1.92-4.53,4.56-4.53h9.36v-2.76c0-1.41-1.05-2.49-2.46-2.49h-10.14c-.48,0-.9-.45-.9-1.11s.42-1.11.9-1.11h10.53c2.61,0,4.53,1.92,4.53,4.53v8.94c0,2.61-2.07,4.56-4.68,4.56ZM645.23,16.08h-9c-1.41,0-2.55,1.11-2.55,2.55v1.2c0,1.44,1.14,2.49,2.55,2.49h6.51c1.44,0,2.49-1.05,2.49-2.49v-3.75Z"/>
        <path class="cls-1" d="M652.79,24.57c-.9,0-1.2-.33-1.2-1.05V1.29c0-.72.3-1.08,1.2-1.08s1.23.36,1.23,1.08v22.23c0,.72-.33,1.05-1.23,1.05ZM663.44,24.6c-.24,0-.45-.12-.69-.33l-6.3-5.52c-1.17-1.02-1.86-2.16-1.86-3.78,0-1.38.6-2.67,2.04-3.81l5.94-4.68c.24-.18.45-.3.69-.3.54,0,1.32.81,1.32,1.35,0,.27-.18.51-.45.72l-5.85,4.56c-.84.66-1.35,1.32-1.35,2.16s.42,1.53,1.14,2.13l6.3,5.46c.27.24.42.45.42.72,0,.51-.84,1.32-1.35,1.32Z"/>
        <path class="cls-1" d="M679.31,16.8h-9.36v2.94c0,1.5,1.08,2.55,2.49,2.55h10.08c.51,0,.93.45.93,1.14s-.42,1.14-.93,1.14h-10.38c-2.61,0-4.65-1.95-4.65-4.56v-8.88c0-2.61,2.01-4.62,4.62-4.62h7.2c2.61,0,4.59,1.92,4.59,4.53v1.2c0,2.58-1.98,4.56-4.59,4.56ZM681.44,11.28c0-1.44-1.05-2.49-2.49-2.49h-6.51c-1.41,0-2.49,1.05-2.49,2.49v3.48h9c1.44,0,2.49-1.08,2.49-2.52v-.96Z"/>
        <path class="cls-1" d="M710.24,24.54h-11.61c-.72,0-1.08-.3-1.08-1.26s.36-1.26,1.08-1.26h11.52c2.49,0,3.99-1.62,3.99-3.81v-.72c0-2.25-1.62-3.96-3.96-3.96h-6.84c-3.81,0-6.45-2.76-6.45-6.3v-.84c0-3.54,2.82-6.21,6.42-6.21h11.13c.72,0,1.11.33,1.11,1.26s-.39,1.26-1.11,1.26h-11.01c-2.37,0-3.96,1.59-3.96,3.78v.75c0,2.28,1.56,3.81,3.99,3.81h6.78c3.69,0,6.42,2.88,6.42,6.45v.81c0,3.54-2.7,6.24-6.42,6.24Z"/>
        <path class="cls-1" d="M740.93,24.57c-.9,0-1.17-.33-1.17-1.02v-10.98c0-2.01-1.32-3.72-3.57-3.72h-3.99v14.76c0,.66-.3.96-1.14.96s-1.14-.3-1.14-.96v-14.76h-7.56v14.73c0,.69-.3,1.02-1.2,1.02s-1.2-.33-1.2-1.02V6.48h16.44c3.51,0,5.73,2.61,5.73,5.82v11.25c0,.69-.3,1.02-1.2,1.02Z"/>
        <path class="cls-1" d="M747.59,5.25c-.93,0-1.23-.33-1.23-1.05v-1.77c0-.72.3-1.08,1.23-1.08s1.23.36,1.23,1.08v1.77c0,.72-.33,1.05-1.23,1.05ZM747.59,24.57c-.93,0-1.23-.33-1.23-1.05V7.86c0-.72.3-1.08,1.23-1.08s1.23.36,1.23,1.08v15.66c0,.72-.33,1.05-1.23,1.05Z"/>
        <path class="cls-1" d="M754.94,24.57c-.96,0-1.26-.36-1.26-1.08V1.32c0-.72.3-1.11,1.26-1.11s1.29.39,1.29,1.11v22.17c0,.72-.33,1.08-1.29,1.08Z"/>
        <path class="cls-1" d="M771.98,16.8h-9.36v2.94c0,1.5,1.08,2.55,2.49,2.55h10.08c.51,0,.93.45.93,1.14s-.42,1.14-.93,1.14h-10.38c-2.61,0-4.65-1.95-4.65-4.56v-8.88c0-2.61,2.01-4.62,4.62-4.62h7.2c2.61,0,4.59,1.92,4.59,4.53v1.2c0,2.58-1.98,4.56-4.59,4.56ZM774.11,11.28c0-1.44-1.05-2.49-2.49-2.49h-6.51c-1.41,0-2.49,1.05-2.49,2.49v3.48h9c1.44,0,2.49-1.08,2.49-2.52v-.96Z"/>
        <path class="cls-1" d="M803.24,24.54h-10.53c-1.26,0-2.25-.99-2.25-2.25V2.4c0-1.26.99-2.25,2.25-2.25h10.56c3.42,0,6.21,2.46,6.21,6.09v12.18c0,3.42-2.61,6.12-6.24,6.12ZM806.96,6.45c0-2.31-1.74-3.75-3.87-3.75h-9.27c-.48,0-.84.36-.84.84v17.61c0,.48.36.84.84.84h9.27c2.28,0,3.87-1.65,3.87-3.78V6.45Z"/>
        <path class="cls-1" d="M824.59,16.8h-9.36v2.94c0,1.5,1.08,2.55,2.49,2.55h10.08c.51,0,.93.45.93,1.14s-.42,1.14-.93,1.14h-10.38c-2.61,0-4.65-1.95-4.65-4.56v-8.88c0-2.61,2.01-4.62,4.62-4.62h7.2c2.61,0,4.59,1.92,4.59,4.53v1.2c0,2.58-1.98,4.56-4.59,4.56ZM826.72,11.28c0-1.44-1.05-2.49-2.49-2.49h-6.51c-1.41,0-2.49,1.05-2.49,2.49v3.48h9c1.44,0,2.49-1.08,2.49-2.52v-.96Z"/>
        <path class="cls-1" d="M843.49,24.57h-9.78c-.66,0-.99-.27-.99-1.14s.33-1.17.99-1.17h9.51c1.44,0,2.49-1.02,2.49-2.43v-.81c0-1.38-1.05-2.49-2.49-2.49h-6.12c-2.61,0-4.62-1.89-4.62-4.56v-.84c0-2.61,2.04-4.65,4.62-4.65h9.3c.66,0,1.02.3,1.02,1.17s-.36,1.14-1.02,1.14h-9c-1.41,0-2.52,1.02-2.52,2.43v.72c0,1.41,1.11,2.46,2.52,2.46h6.09c2.61,0,4.62,1.92,4.62,4.59v.93c0,2.61-2.04,4.65-4.62,4.65Z"/>
        <path class="cls-1" d="M853.57,5.25c-.93,0-1.23-.33-1.23-1.05v-1.77c0-.72.3-1.08,1.23-1.08s1.23.36,1.23,1.08v1.77c0,.72-.33,1.05-1.23,1.05ZM853.57,24.57c-.93,0-1.23-.33-1.23-1.05V7.86c0-.72.3-1.08,1.23-1.08s1.23.36,1.23,1.08v15.66c0,.72-.33,1.05-1.23,1.05Z"/>
        <path class="cls-1" d="M875.11,23.19c0,2.61-1.95,4.56-4.56,4.56h-7.38c-2.67,0-4.41-1.53-4.41-4.35v-.39c0-.69.3-1.05,1.2-1.05s1.2.36,1.2,1.05v.15c0,1.5.81,2.31,2.37,2.31h6.66c1.41,0,2.46-1.08,2.46-2.49v-4.14c-.66.36-1.5.57-2.52.57h-6.93c-2.55,0-4.5-1.77-4.47-4.56l.03-3.75c.03-2.61,1.86-4.59,4.47-4.59h7.2c2.61,0,4.71,1.92,4.71,4.53l-.03,12.15ZM872.65,11.34c0-1.41-1.05-2.52-2.49-2.52h-6.45c-1.44,0-2.55,1.08-2.55,2.52v3.3c0,1.59,1.08,2.52,2.52,2.52h6.39c1.53,0,2.58-.66,2.58-2.52v-3.3Z"/>
        <path class="cls-1" d="M893.5,24.57c-.9,0-1.2-.33-1.2-1.05v-10.14c0-2.4-1.86-4.5-4.32-4.5h-7.08v14.64c0,.72-.33,1.05-1.23,1.05s-1.23-.33-1.23-1.05V6.48h9.9c3.63,0,6.39,3.09,6.39,6.57v10.47c0,.72-.33,1.05-1.23,1.05Z"/>
        <path class="cls-1" d="M929.32,24.81c-.78,0-1.29-.48-1.29-1.02V5.04c0-.3-.09-.45-.24-.45-.12,0-.24.09-.36.21l-3.99,3.96c-1.23,1.23-2.55,1.86-3.87,1.86s-2.52-.6-3.75-1.83l-4.05-4.02c-.12-.12-.24-.21-.36-.21-.15,0-.24.15-.24.45v18.78c0,.54-.51,1.02-1.26,1.02s-1.29-.48-1.29-1.02V.81c0-.45.39-.81,1.02-.81s.99.18,1.29.48l6.12,6.12c.84.84,1.71,1.26,2.55,1.26s1.77-.42,2.64-1.32l6.03-6.06c.3-.3.69-.48,1.32-.48s.99.36.99.81v22.98c0,.54-.51,1.02-1.26,1.02Z"/>
        <path class="cls-1" d="M945.88,24.54h-7.14c-2.61,0-4.56-1.95-4.56-4.53v-1.5c0-2.61,1.92-4.53,4.56-4.53h9.36v-2.76c0-1.41-1.05-2.49-2.46-2.49h-10.14c-.48,0-.9-.45-.9-1.11s.42-1.11.9-1.11h10.53c2.61,0,4.53,1.92,4.53,4.53v8.94c0,2.61-2.07,4.56-4.68,4.56ZM948.1,16.08h-9c-1.41,0-2.55,1.11-2.55,2.55v1.2c0,1.44,1.14,2.49,2.55,2.49h6.51c1.44,0,2.49-1.05,2.49-2.49v-3.75Z"/>
        <path class="cls-1" d="M955.66,24.57c-.9,0-1.2-.33-1.2-1.05V1.29c0-.72.3-1.08,1.2-1.08s1.23.36,1.23,1.08v22.23c0,.72-.33,1.05-1.23,1.05ZM966.31,24.6c-.24,0-.45-.12-.69-.33l-6.3-5.52c-1.17-1.02-1.86-2.16-1.86-3.78,0-1.38.6-2.67,2.04-3.81l5.94-4.68c.24-.18.45-.3.69-.3.54,0,1.32.81,1.32,1.35,0,.27-.18.51-.45.72l-5.85,4.56c-.84.66-1.35,1.32-1.35,2.16s.42,1.53,1.14,2.13l6.3,5.46c.27.24.42.45.42.72,0,.51-.84,1.32-1.35,1.32Z"/>
        <path class="cls-1" d="M982.18,16.8h-9.36v2.94c0,1.5,1.08,2.55,2.49,2.55h10.08c.51,0,.93.45.93,1.14s-.42,1.14-.93,1.14h-10.38c-2.61,0-4.65-1.95-4.65-4.56v-8.88c0-2.61,2.01-4.62,4.62-4.62h7.2c2.61,0,4.59,1.92,4.59,4.53v1.2c0,2.58-1.98,4.56-4.59,4.56ZM984.31,11.28c0-1.44-1.05-2.49-2.49-2.49h-6.51c-1.41,0-2.49,1.05-2.49,2.49v3.48h9c1.44,0,2.49-1.08,2.49-2.52v-.96Z"/>
        <path class="cls-1" d="M1013.11,24.54h-11.61c-.72,0-1.08-.3-1.08-1.26s.36-1.26,1.08-1.26h11.52c2.49,0,3.99-1.62,3.99-3.81v-.72c0-2.25-1.62-3.96-3.96-3.96h-6.84c-3.81,0-6.45-2.76-6.45-6.3v-.84c0-3.54,2.82-6.21,6.42-6.21h11.13c.72,0,1.11.33,1.11,1.26s-.39,1.26-1.11,1.26h-11.01c-2.37,0-3.96,1.59-3.96,3.78v.75c0,2.28,1.56,3.81,3.99,3.81h6.78c3.69,0,6.42,2.88,6.42,6.45v.81c0,3.54-2.7,6.24-6.42,6.24Z"/>
        <path class="cls-1" d="M1043.8,24.57c-.9,0-1.17-.33-1.17-1.02v-10.98c0-2.01-1.32-3.72-3.57-3.72h-3.99v14.76c0,.66-.3.96-1.14.96s-1.14-.3-1.14-.96v-14.76h-7.56v14.73c0,.69-.3,1.02-1.2,1.02s-1.2-.33-1.2-1.02V6.48h16.44c3.51,0,5.73,2.61,5.73,5.82v11.25c0,.69-.3,1.02-1.2,1.02Z"/>
        <path class="cls-1" d="M1050.46,5.25c-.93,0-1.23-.33-1.23-1.05v-1.77c0-.72.3-1.08,1.23-1.08s1.23.36,1.23,1.08v1.77c0,.72-.33,1.05-1.23,1.05ZM1050.46,24.57c-.93,0-1.23-.33-1.23-1.05V7.86c0-.72.3-1.08,1.23-1.08s1.23.36,1.23,1.08v15.66c0,.72-.33,1.05-1.23,1.05Z"/>
        <path class="cls-1" d="M1057.81,24.57c-.96,0-1.26-.36-1.26-1.08V1.32c0-.72.3-1.11,1.26-1.11s1.29.39,1.29,1.11v22.17c0,.72-.33,1.08-1.29,1.08Z"/>
        <path class="cls-1" d="M1074.85,16.8h-9.36v2.94c0,1.5,1.08,2.55,2.49,2.55h10.08c.51,0,.93.45.93,1.14s-.42,1.14-.93,1.14h-10.38c-2.61,0-4.65-1.95-4.65-4.56v-8.88c0-2.61,2.01-4.62,4.62-4.62h7.2c2.61,0,4.59,1.92,4.59,4.53v1.2c0,2.58-1.98,4.56-4.59,4.56ZM1076.98,11.28c0-1.44-1.05-2.49-2.49-2.49h-6.51c-1.41,0-2.49,1.05-2.49,2.49v3.48h9c1.44,0,2.49-1.08,2.49-2.52v-.96Z"/>
        <path class="cls-1" d="M1106.11,24.54h-10.53c-1.26,0-2.25-.99-2.25-2.25V2.4c0-1.26.99-2.25,2.25-2.25h10.56c3.42,0,6.21,2.46,6.21,6.09v12.18c0,3.42-2.61,6.12-6.24,6.12ZM1109.83,6.45c0-2.31-1.74-3.75-3.87-3.75h-9.27c-.48,0-.84.36-.84.84v17.61c0,.48.36.84.84.84h9.27c2.28,0,3.87-1.65,3.87-3.78V6.45Z"/>
        <path class="cls-1" d="M1127.47,16.8h-9.36v2.94c0,1.5,1.08,2.55,2.49,2.55h10.08c.51,0,.93.45.93,1.14s-.42,1.14-.93,1.14h-10.38c-2.61,0-4.65-1.95-4.65-4.56v-8.88c0-2.61,2.01-4.62,4.62-4.62h7.2c2.61,0,4.59,1.92,4.59,4.53v1.2c0,2.58-1.98,4.56-4.59,4.56ZM1129.6,11.28c0-1.44-1.05-2.49-2.49-2.49h-6.51c-1.41,0-2.49,1.05-2.49,2.49v3.48h9c1.44,0,2.49-1.08,2.49-2.52v-.96Z"/>
        <path class="cls-1" d="M1146.37,24.57h-9.78c-.66,0-.99-.27-.99-1.14s.33-1.17.99-1.17h9.51c1.44,0,2.49-1.02,2.49-2.43v-.81c0-1.38-1.05-2.49-2.49-2.49h-6.12c-2.61,0-4.62-1.89-4.62-4.56v-.84c0-2.61,2.04-4.65,4.62-4.65h9.3c.66,0,1.02.3,1.02,1.17s-.36,1.14-1.02,1.14h-9c-1.41,0-2.52,1.02-2.52,2.43v.72c0,1.41,1.11,2.46,2.52,2.46h6.09c2.61,0,4.62,1.92,4.62,4.59v.93c0,2.61-2.04,4.65-4.62,4.65Z"/>
        <path class="cls-1" d="M1156.45,5.25c-.93,0-1.23-.33-1.23-1.05v-1.77c0-.72.3-1.08,1.23-1.08s1.23.36,1.23,1.08v1.77c0,.72-.33,1.05-1.23,1.05ZM1156.45,24.57c-.93,0-1.23-.33-1.23-1.05V7.86c0-.72.3-1.08,1.23-1.08s1.23.36,1.23,1.08v15.66c0,.72-.33,1.05-1.23,1.05Z"/>
        <path class="cls-1" d="M1177.99,23.19c0,2.61-1.95,4.56-4.56,4.56h-7.38c-2.67,0-4.41-1.53-4.41-4.35v-.39c0-.69.3-1.05,1.2-1.05s1.2.36,1.2,1.05v.15c0,1.5.81,2.31,2.37,2.31h6.66c1.41,0,2.46-1.08,2.46-2.49v-4.14c-.66.36-1.5.57-2.52.57h-6.93c-2.55,0-4.5-1.77-4.47-4.56l.03-3.75c.03-2.61,1.86-4.59,4.47-4.59h7.2c2.61,0,4.71,1.92,4.71,4.53l-.03,12.15ZM1175.53,11.34c0-1.41-1.05-2.52-2.49-2.52h-6.45c-1.44,0-2.55,1.08-2.55,2.52v3.3c0,1.59,1.08,2.52,2.52,2.52h6.39c1.53,0,2.58-.66,2.58-2.52v-3.3Z"/>
        <path class="cls-1" d="M1196.38,24.57c-.9,0-1.2-.33-1.2-1.05v-10.14c0-2.4-1.86-4.5-4.32-4.5h-7.08v14.64c0,.72-.33,1.05-1.23,1.05s-1.23-.33-1.23-1.05V6.48h9.9c3.63,0,6.39,3.09,6.39,6.57v10.47c0,.72-.33,1.05-1.23,1.05Z"/>
        <path class="cls-1" d="M1232.2,24.81c-.78,0-1.29-.48-1.29-1.02V5.04c0-.3-.09-.45-.24-.45-.12,0-.24.09-.36.21l-3.99,3.96c-1.23,1.23-2.55,1.86-3.87,1.86s-2.52-.6-3.75-1.83l-4.05-4.02c-.12-.12-.24-.21-.36-.21-.15,0-.24.15-.24.45v18.78c0,.54-.51,1.02-1.26,1.02s-1.29-.48-1.29-1.02V.81c0-.45.39-.81,1.02-.81s.99.18,1.29.48l6.12,6.12c.84.84,1.71,1.26,2.55,1.26s1.77-.42,2.64-1.32l6.03-6.06c.3-.3.69-.48,1.32-.48s.99.36.99.81v22.98c0,.54-.51,1.02-1.26,1.02Z"/>
        <path class="cls-1" d="M1248.76,24.54h-7.14c-2.61,0-4.56-1.95-4.56-4.53v-1.5c0-2.61,1.92-4.53,4.56-4.53h9.36v-2.76c0-1.41-1.05-2.49-2.46-2.49h-10.14c-.48,0-.9-.45-.9-1.11s.42-1.11.9-1.11h10.53c2.61,0,4.53,1.92,4.53,4.53v8.94c0,2.61-2.07,4.56-4.68,4.56ZM1250.98,16.08h-9c-1.41,0-2.55,1.11-2.55,2.55v1.2c0,1.44,1.14,2.49,2.55,2.49h6.51c1.44,0,2.49-1.05,2.49-2.49v-3.75Z"/>
        <path class="cls-1" d="M1258.54,24.57c-.9,0-1.2-.33-1.2-1.05V1.29c0-.72.3-1.08,1.2-1.08s1.23.36,1.23,1.08v22.23c0,.72-.33,1.05-1.23,1.05ZM1269.19,24.6c-.24,0-.45-.12-.69-.33l-6.3-5.52c-1.17-1.02-1.86-2.16-1.86-3.78,0-1.38.6-2.67,2.04-3.81l5.94-4.68c.24-.18.45-.3.69-.3.54,0,1.32.81,1.32,1.35,0,.27-.18.51-.45.72l-5.85,4.56c-.84.66-1.35,1.32-1.35,2.16s.42,1.53,1.14,2.13l6.3,5.46c.27.24.42.45.42.72,0,.51-.84,1.32-1.35,1.32Z"/>
        <path class="cls-1" d="M1285.06,16.8h-9.36v2.94c0,1.5,1.08,2.55,2.49,2.55h10.08c.51,0,.93.45.93,1.14s-.42,1.14-.93,1.14h-10.38c-2.61,0-4.65-1.95-4.65-4.56v-8.88c0-2.61,2.01-4.62,4.62-4.62h7.2c2.61,0,4.59,1.92,4.59,4.53v1.2c0,2.58-1.98,4.56-4.59,4.56ZM1287.19,11.28c0-1.44-1.05-2.49-2.49-2.49h-6.51c-1.41,0-2.49,1.05-2.49,2.49v3.48h9c1.44,0,2.49-1.08,2.49-2.52v-.96Z"/>
        <path class="cls-1" d="M1315.99,24.54h-11.61c-.72,0-1.08-.3-1.08-1.26s.36-1.26,1.08-1.26h11.52c2.49,0,3.99-1.62,3.99-3.81v-.72c0-2.25-1.62-3.96-3.96-3.96h-6.84c-3.81,0-6.45-2.76-6.45-6.3v-.84c0-3.54,2.82-6.21,6.42-6.21h11.13c.72,0,1.11.33,1.11,1.26s-.39,1.26-1.11,1.26h-11.01c-2.37,0-3.96,1.59-3.96,3.78v.75c0,2.28,1.56,3.81,3.99,3.81h6.78c3.69,0,6.42,2.88,6.42,6.45v.81c0,3.54-2.7,6.24-6.42,6.24Z"/>
      </g>
    </g>
  </g>
</svg>