<?xml version="1.0" encoding="UTF-8"?>
<svg id="_レイヤー_2" data-name="レイヤー_2" xmlns="http://www.w3.org/2000/svg" viewBox="0 0 42 30.42">
  <defs>
    <style>
      .cls-1 {
        font-family: VDL-GigaMaruJr-Medium-83pv-RKSJ-H, VDL-GigaMaruJr;
        font-size: 12px;
        font-weight: 500;
      }

      .cls-1, .cls-2 {
        fill: #fdc511;
      }
    </style>
  </defs>
  <g id="Works_遷移先_Sp">
    <g id="FV">
      <g id="_矢印" data-name="矢印">
        <g>
          <path id="_矢印-2" data-name="矢印" class="cls-2" d="M0,22.44c0-.41.11-.75.33-1.04s.49-.43.8-.43h28.54s0-4.28,0-4.28c0-1.06.24-1.75.71-2.08.47-.33,1.05-.27,1.75.18l8.79,5.74c.72.49,1.09,1.12,1.09,1.89s-.36,1.38-1.09,1.83l-8.79,5.74c-.69.45-1.28.52-1.75.21-.47-.3-.71-1.01-.71-2.11v-4.15s-28.54,0-28.54,0c-.31,0-.58-.14-.8-.43C.11,23.26,0,22.89,0,22.44Z"/>
          <text class="cls-1" transform="translate(2.62 10.56)"><tspan x="0" y="0">NEXT</tspan></text>
        </g>
      </g>
    </g>
  </g>
</svg>