<?xml version="1.0" encoding="UTF-8"?>
<svg id="_レイヤー_2" data-name="レイヤー_2" xmlns="http://www.w3.org/2000/svg" viewBox="0 0 64.01 47.75">
  <defs>
    <style>
      .cls-1, .cls-2 {
        fill: #fdc511;
      }

      .cls-2 {
        font-family: VDL-GigaMaruJr-Medium-83pv-RKSJ-H, VDL-GigaMaruJr;
        font-size: 20px;
        font-weight: 500;
      }
    </style>
  </defs>
  <g id="TOP_PC">
    <g id="FV">
      <g id="_矢印" data-name="矢印">
        <path id="_矢印-2" data-name="矢印" class="cls-1" d="M0,38.35c0-.48.17-.89.5-1.22s.75-.5,1.22-.5h43.49s0-5.04,0-5.04c0-1.25.36-2.06,1.08-2.45.72-.38,1.61-.31,2.66.22l13.39,6.77c1.1.58,1.66,1.32,1.66,2.23s-.55,1.63-1.66,2.16l-13.39,6.77c-1.06.53-1.94.61-2.66.25-.72-.36-1.08-1.19-1.08-2.48v-4.9s-43.49,0-43.49,0c-.48,0-.89-.17-1.22-.5C.17,39.31,0,38.88,0,38.35Z"/>
        <text class="cls-2" transform="translate(0 17.6)"><tspan x="0" y="0">NEXT</tspan></text>
      </g>
    </g>
  </g>
</svg>