<?xml version="1.0" encoding="UTF-8"?>
<svg id="_レイヤー_2" data-name="レイヤー_2" xmlns="http://www.w3.org/2000/svg" viewBox="0 0 18.86 64.01">
  <defs>
    <style>
      .cls-1 {
        fill: #f58196;
      }
    </style>
  </defs>
  <g id="TOP_PC">
    <g id="_フッター" data-name="フッター">
      <path id="_矢印" data-name="矢印" class="cls-1" d="M9.46,64.01c-.48,0-.89-.17-1.22-.5s-.5-.75-.5-1.22V18.79H2.69c-1.25,0-2.06-.36-2.45-1.08-.38-.72-.31-1.61.22-2.66L7.23,1.66c.58-1.1,1.32-1.66,2.23-1.66s1.63.55,2.16,1.66l6.77,13.39c.53,1.06.61,1.94.25,2.66-.36.72-1.19,1.08-2.48,1.08h-4.9v43.49c0,.48-.17.89-.5,1.22-.34.33-.77.5-1.3.5Z"/>
    </g>
  </g>
</svg>