<?xml version="1.0" encoding="UTF-8"?>
<svg id="_レイヤー_2" data-name="レイヤー_2" xmlns="http://www.w3.org/2000/svg" xmlns:xlink="http://www.w3.org/1999/xlink" viewBox="0 0 77.38 76.44">
  <defs>
    <style>
      .cls-1 {
        opacity: .6;
      }

      .cls-1, .cls-2 {
        isolation: isolate;
      }

      .cls-2 {
        opacity: .59;
      }

      .cls-3 {
        fill: #bdbdbd;
      }

      .cls-4 {
        fill: url(#_名称未設定グラデーション_3);
      }

      .cls-5 {
        fill: #81d4fa;
      }

      .cls-6 {
        fill: #fff;
      }

      .cls-7 {
        fill: url(#_名称未設定グラデーション_3-2);
      }

      .cls-8 {
        fill: #424242;
      }

      .cls-9 {
        fill: #616161;
      }
    </style>
    <linearGradient id="_名称未設定グラデーション_3" data-name="名称未設定グラデーション 3" x1="-2006.96" y1="-3617.76" x2="-2005.96" y2="-3617.76" gradientTransform="translate(83039.2 -3781.39) rotate(58.37) scale(20.09 -20.09)" gradientUnits="userSpaceOnUse">
      <stop offset="0" stop-color="#fff"/>
      <stop offset=".28" stop-color="#fff"/>
      <stop offset="1" stop-color="#fff" stop-opacity="0"/>
    </linearGradient>
    <linearGradient id="_名称未設定グラデーション_3-2" data-name="名称未設定グラデーション 3" y1="-3617.76" y2="-3617.76" gradientTransform="translate(-94076.6 -64802.99) rotate(-84.45) scale(27.63 -27.63)" xlink:href="#_名称未設定グラデーション_3"/>
  </defs>
  <g id="TOP_PC">
    <g id="_検索窓" data-name="検索窓">
      <g>
        <g class="cls-1">
          <path class="cls-5" d="M28.12,5.16c-3.21,0-6.21.6-9.01,1.79-2.8,1.19-5.26,2.85-7.39,4.98-2.13,2.13-3.79,4.61-4.98,7.42-1.19,2.82-1.79,5.81-1.79,8.97s.56,6.18,1.68,8.9c1.12,2.73,2.69,5.11,4.71,7.15,2.02,2.04,4.39,3.62,7.11,4.74s5.69,1.68,8.9,1.68,6.21-.61,9.01-1.82c2.8-1.21,5.26-2.89,7.39-5.02s3.79-4.59,4.98-7.39c1.19-2.8,1.79-5.8,1.79-9.01s-.56-6.18-1.68-8.9c-1.12-2.73-2.69-5.1-4.71-7.11s-4.39-3.59-7.11-4.71c-2.73-1.12-5.69-1.68-8.9-1.68Z"/>
        </g>
        <path class="cls-9" d="M9.01,7.77c2.57-2.52,5.29-4.27,8.18-5.26s5.79-1.41,8.7-1.27c2.91.14,5.68.65,8.32,1.55s4.97,1.97,7.01,3.23c2.04,1.26,3.61,2.51,4.71,3.75,2.11,2.29,3.87,4.9,5.29,7.84,1.42,2.93,2.31,6.01,2.68,9.25.37,3.23,0,6.47-1.1,9.73-1.1,3.25-3.14,6.37-6.12,9.35-3.21,3.21-6.61,5.36-10.21,6.46-3.6,1.1-7.17,1.41-10.72.93-3.55-.48-6.9-1.56-10.04-3.23-3.14-1.67-5.85-3.68-8.15-6.01-1.01-1.01-1.99-2.5-2.96-4.47-.96-1.97-1.74-4.25-2.34-6.84-.6-2.59-.82-5.33-.69-8.21.14-2.89.78-5.76,1.92-8.63,1.15-2.86,2.98-5.58,5.5-8.15ZM28.12,5.16c-3.21,0-6.21.6-9.01,1.79-2.8,1.19-5.26,2.85-7.39,4.98-2.13,2.13-3.79,4.61-4.98,7.42-1.19,2.82-1.79,5.81-1.79,8.97s.56,6.18,1.68,8.9c1.12,2.73,2.69,5.11,4.71,7.15,2.02,2.04,4.39,3.62,7.11,4.74s5.69,1.68,8.9,1.68,6.21-.61,9.01-1.82c2.8-1.21,5.26-2.89,7.39-5.02s3.79-4.59,4.98-7.39c1.19-2.8,1.79-5.8,1.79-9.01s-.56-6.18-1.68-8.9c-1.12-2.73-2.69-5.1-4.71-7.11s-4.39-3.59-7.11-4.71c-2.73-1.12-5.69-1.68-8.9-1.68Z"/>
        <path class="cls-3" d="M61.73,55.54l-12.65-12.79s-.22-.05-.65-.14c-.44-.09-.99-.06-1.65.1-.66.16-1.34.58-2.03,1.27-.69.69-1.09,1.35-1.2,1.99s-.11,1.17,0,1.58c.11.41.17.62.17.62l12.65,12.72,5.36-5.36Z"/>
        <path class="cls-9" d="M54.44,46.54c.14.14.74.69,1.82,1.65s2.42,2.2,4.02,3.71c1.6,1.51,3.32,3.1,5.16,4.78,1.83,1.67,3.57,3.28,5.22,4.81,1.65,1.54,3.02,2.82,4.12,3.85,1.1,1.03,1.76,1.64,1.99,1.82.69.73.78,1.67.27,2.82-.5,1.15-1.37,2.34-2.61,3.57-1.24,1.24-2.47,2.1-3.71,2.58s-2.18.4-2.82-.24c-.18-.18-.79-.85-1.82-1.99-1.03-1.15-2.33-2.58-3.88-4.3-1.56-1.72-3.2-3.53-4.92-5.43-1.72-1.9-3.33-3.69-4.85-5.36-1.51-1.67-2.74-3.04-3.68-4.09l-1.41-1.58c-.18-.27-.38-.69-.58-1.24-.21-.55-.22-1.2-.03-1.96.18-.76.73-1.62,1.65-2.58.96-.92,1.86-1.44,2.68-1.58.82-.14,1.54-.09,2.13.14.6.23,1.01.44,1.24.62Z"/>
        <path class="cls-3" d="M25.71,0h0c3.57,0,6.92.66,10.04,1.99s5.85,3.17,8.21,5.53,4.2,5.1,5.53,8.21c1.33,3.12,1.99,6.44,1.99,9.97s-.66,6.92-1.99,10.04c-1.33,3.12-3.17,5.85-5.53,8.21s-5.1,4.2-8.21,5.53c-3.12,1.33-6.46,1.99-10.04,1.99s-6.85-.66-9.97-1.99c-3.12-1.33-5.85-3.17-8.21-5.53-2.36-2.36-4.2-5.1-5.53-8.21-1.33-3.12-1.99-6.46-1.99-10.04s.66-6.85,1.99-9.97c1.33-3.12,3.17-5.85,5.53-8.21,2.36-2.36,5.1-4.2,8.21-5.53s6.44-1.99,9.97-1.99ZM25.71,2.54c-3.21,0-6.21.61-9.01,1.82s-5.26,2.88-7.39,4.98c-2.13,2.11-3.79,4.57-4.98,7.39-1.19,2.82-1.79,5.81-1.79,8.97s.6,6.22,1.79,9.04,2.85,5.28,4.98,7.39c2.13,2.11,4.59,3.77,7.39,4.98,2.8,1.21,5.8,1.82,9.01,1.82s6.21-.61,9.01-1.82c2.8-1.21,5.26-2.88,7.39-4.98,2.13-2.11,3.8-4.57,5.02-7.39,1.21-2.82,1.82-5.83,1.82-9.04s-.61-6.15-1.82-8.97c-1.21-2.82-2.89-5.28-5.02-7.39-2.13-2.11-4.59-3.77-7.39-4.98s-5.8-1.82-9.01-1.82Z"/>
        <path class="cls-8" d="M77.06,67.71c-.46-.46-1.26-.44-2.41.07-1.15.5-2.29,1.35-3.44,2.54-1.19,1.15-2.04,2.29-2.54,3.44s-.53,1.95-.07,2.41c.46.41,1.26.37,2.41-.14,1.15-.5,2.29-1.33,3.44-2.47,1.15-1.15,1.98-2.29,2.51-3.44s.56-1.95.1-2.41Z"/>
        <path class="cls-4" d="M14.5,12.17c1.24-1.24,2.64-2.15,4.19-2.75,1.56-.6,2.96-.82,4.19-.69,1.19.14,2.31.6,3.37,1.37s1.74,1.76,2.06,2.96c.32,1.24.25,2.46-.21,3.68-.46,1.21-1.1,2.3-1.92,3.27s-1.73,1.86-2.72,2.68-1.89,1.7-2.72,2.61c-1.42,1.47-2.52,3.14-3.3,5.02-.28.6-.55,1.2-.82,1.82-.28.62-.69,1.13-1.24,1.55-.82.55-1.75.69-2.78.41s-1.87-.8-2.51-1.58c-.6-.78-1-1.66-1.2-2.65-.21-.99-.31-1.98-.31-2.99.05-2.7.52-5.28,1.41-7.73.89-2.45,2.39-4.78,4.5-6.98Z"/>
        <g class="cls-2">
          <path class="cls-6" d="M38.7,45.78c0,.41.16.7.48.86.32.16.64.13.96-.1,2.2-1.51,3.99-3.15,5.36-4.92,1.37-1.76,2.44-3.47,3.2-5.12.76-1.65,1.29-3.09,1.62-4.33s.5-2.11.55-2.61c.14-.92-.05-1.48-.55-1.68-.5-.21-.89.36-1.17,1.68-.09.5-.32,1.39-.69,2.65s-.99,2.69-1.86,4.3c-1.42,2.8-2.88,4.81-4.37,6.05-1.49,1.24-2.53,2.09-3.13,2.54-.27.18-.41.41-.41.69Z"/>
        </g>
        <g class="cls-2">
          <path class="cls-6" d="M14.44,4.33c.05-.55-.22-.76-.79-.62-.57.14-1.02.3-1.34.48-2.29,1.42-4.16,2.98-5.6,4.67-1.44,1.7-2.59,3.35-3.44,4.95s-1.46,3.02-1.82,4.26-.6,2.11-.69,2.61c-.14.87.05,1.36.55,1.48.5.11.89-.38,1.17-1.48.18-.64.52-1.57,1-2.78.48-1.21,1.07-2.46,1.75-3.75.96-1.88,1.94-3.35,2.92-4.4.99-1.05,1.88-1.86,2.68-2.41.8-.55,1.41-.96,1.82-1.24.14-.09.46-.31.96-.65s.78-.72.82-1.13Z"/>
        </g>
        <path class="cls-7" d="M33.48,44.61c2.2-.41,3.99-1.18,5.36-2.3,1.37-1.12,2.5-2.19,3.37-3.2.87-1.1,1.54-2.23,1.99-3.4s.66-2.65.62-4.43c-1.56,2.06-3.39,4.03-5.5,5.91-2.11,1.88-4.42,3.19-6.94,3.92-.46.14-.92.33-1.37.58-.46.25-.76.61-.89,1.07-.18.6-.03,1.12.45,1.58s1.46.55,2.92.27Z"/>
      </g>
    </g>
  </g>
</svg>