<?xml version="1.0" encoding="UTF-8"?>
<svg id="_レイヤー_2" data-name="レイヤー_2" xmlns="http://www.w3.org/2000/svg" viewBox="0 0 457.77 60.92">
  <defs>
    <style>
      .cls-1 {
        fill: #f58196;
      }

      .cls-2 {
        fill: none;
        stroke: #fff;
        stroke-linecap: round;
        stroke-linejoin: round;
        stroke-width: 10px;
      }
    </style>
  </defs>
  <g id="About_PC">
    <g id="_スキル" data-name="スキル">
      <g id="_できること" data-name="できること">
        <g id="skill_and_tool">
          <path class="cls-2" d="M32.04,58.47H4.18c-1.73,0-2.59-.72-2.59-3.02s.86-3.02,2.59-3.02h27.65c5.98,0,9.58-3.89,9.58-9.14v-1.73c0-5.4-3.89-9.5-9.5-9.5H15.48c-9.15,0-15.48-6.62-15.48-15.12v-2.02C0,6.41,6.77,0,15.41,0h26.71c1.73,0,2.66.79,2.66,3.02s-.94,3.02-2.66,3.02H15.7c-5.69,0-9.5,3.82-9.5,9.07v1.8c0,5.47,3.74,9.14,9.58,9.14h16.27c8.86,0,15.41,6.91,15.41,15.48v1.94c0,8.5-6.48,14.98-15.41,14.98Z"/>
          <path class="cls-2" d="M59.69,58.54c-2.16,0-2.88-.79-2.88-2.52V2.66c0-1.73.72-2.59,2.88-2.59s2.95.86,2.95,2.59v53.36c0,1.73-.79,2.52-2.95,2.52ZM85.25,58.61c-.58,0-1.08-.29-1.66-.79l-15.12-13.25c-2.81-2.45-4.46-5.18-4.46-9.07,0-3.31,1.44-6.41,4.9-9.14l14.26-11.23c.58-.43,1.08-.72,1.66-.72,1.3,0,3.17,1.94,3.17,3.24,0,.65-.43,1.22-1.08,1.73l-14.04,10.94c-2.02,1.58-3.24,3.17-3.24,5.18s1.01,3.67,2.74,5.11l15.12,13.11c.65.58,1.01,1.08,1.01,1.73,0,1.22-2.02,3.17-3.24,3.17Z"/>
          <path class="cls-2" d="M97.27,12.17c-2.23,0-2.95-.79-2.95-2.52v-4.25c0-1.73.72-2.59,2.95-2.59s2.95.86,2.95,2.59v4.25c0,1.73-.79,2.52-2.95,2.52ZM97.27,58.54c-2.23,0-2.95-.79-2.95-2.52V18.43c0-1.73.72-2.59,2.95-2.59s2.95.86,2.95,2.59v37.59c0,1.73-.79,2.52-2.95,2.52Z"/>
          <path class="cls-2" d="M114.91,58.54c-2.3,0-3.02-.86-3.02-2.59V2.74c0-1.73.72-2.66,3.02-2.66s3.1.94,3.1,2.66v53.21c0,1.73-.79,2.59-3.1,2.59Z"/>
          <path class="cls-2" d="M132.69,58.54c-2.3,0-3.02-.86-3.02-2.59V2.74c0-1.73.72-2.66,3.02-2.66s3.1.94,3.1,2.66v53.21c0,1.73-.79,2.59-3.1,2.59Z"/>
          <path class="cls-2" d="M172.37,58.54h-23.47c-1.58,0-2.38-.65-2.38-2.74s.79-2.81,2.38-2.81h22.83c3.46,0,5.98-2.45,5.98-5.83v-1.94c0-3.31-2.52-5.98-5.98-5.98h-14.69c-6.26,0-11.09-4.54-11.09-10.95v-2.02c0-6.26,4.9-11.16,11.09-11.16h22.32c1.58,0,2.45.72,2.45,2.81s-.86,2.74-2.45,2.74h-21.6c-3.38,0-6.05,2.45-6.05,5.83v1.73c0,3.38,2.66,5.9,6.05,5.9h14.62c6.26,0,11.09,4.61,11.09,11.02v2.23c0,6.26-4.9,11.16-11.09,11.16Z"/>
          <path class="cls-2" d="M251.86,58.54c-.72,1.01-1.37,1.51-2.09,1.51-.43,0-.94-.22-1.44-.65l-4.39-3.38c-2.74,3.02-6.7,4.9-11.38,4.9h-25.13c-8.28,0-14.83-6.26-14.83-15.12v-2.66c0-6.7,1.44-11.02,11.38-14.33l3.46-1.15c-5.47-4.61-9-8.5-9-12.67v-3.1c0-6.77,3.74-11.38,11.09-11.38h15.12c7.63,0,11.45,4.54,11.45,11.59v3.24c0,5.83-2.38,8.71-10.22,11.38l-7.49,2.52,23.83,18.36c.14-.86.29-1.8.29-2.74v-6.84c0-1.58.65-2.38,2.74-2.38s2.74.79,2.74,2.38v6.98c0,2.23-.36,4.32-1.08,6.19l4.68,3.6c.72.58,1.08,1.08,1.08,1.8,0,.5-.22,1.15-.79,1.94ZM212.18,31.32l-5.11,1.73c-7.85,2.67-8.64,4.61-8.64,10.44v1.87c0,5.83,4.25,9.87,9.72,9.87h23.91c2.88,0,5.47-1.01,7.27-2.81l-27.15-21.1ZM230.18,12.31c0-3.96-1.58-6.48-5.69-6.48h-14.55c-4.03,0-5.47,2.45-5.47,6.41v2.59c0,3.1,3.24,6.26,9.07,10.73l9.65-3.31c5.54-1.94,6.98-3.31,6.98-7.13v-2.81Z"/>
          <path class="cls-2" d="M300.74,6.05h-19.8v49.9c0,1.73-.79,2.59-3.1,2.59s-3.02-.86-3.02-2.59V6.05h-20.09c-1.73,0-2.59-.72-2.59-3.02s.86-3.02,2.59-3.02h46.01c1.73,0,2.66.79,2.66,3.02s-.94,3.02-2.66,3.02Z"/>
          <path class="cls-2" d="M332.35,58.61h-7.34c-8.71,0-15.84-6.7-15.84-16.13v-11.23c0-9.5,7.13-16.2,15.84-16.2h7.34c9.14,0,15.91,7.34,15.91,16.13v11.31c0,8.78-6.77,16.13-15.91,16.13ZM342.5,31.54c0-5.76-4.54-10.95-10.51-10.95h-6.55c-5.91,0-10.51,4.61-10.51,11.09v10.37c0,6.41,4.61,10.95,10.51,10.95h6.55c5.98,0,10.51-5.04,10.51-10.87v-10.58Z"/>
          <path class="cls-2" d="M378.64,58.61h-7.34c-8.71,0-15.84-6.7-15.84-16.13v-11.23c0-9.5,7.13-16.2,15.84-16.2h7.34c9.14,0,15.91,7.34,15.91,16.13v11.31c0,8.78-6.77,16.13-15.91,16.13ZM388.8,31.54c0-5.76-4.54-10.95-10.51-10.95h-6.55c-5.91,0-10.51,4.61-10.51,11.09v10.37c0,6.41,4.61,10.95,10.51,10.95h6.55c5.98,0,10.51-5.04,10.51-10.87v-10.58Z"/>
          <path class="cls-2" d="M407.01,58.54c-2.3,0-3.02-.86-3.02-2.59V2.74c0-1.73.72-2.66,3.02-2.66s3.1.94,3.1,2.66v53.21c0,1.73-.79,2.59-3.1,2.59Z"/>
          <path class="cls-2" d="M446.68,58.54h-23.47c-1.58,0-2.38-.65-2.38-2.74s.79-2.81,2.38-2.81h22.83c3.46,0,5.98-2.45,5.98-5.83v-1.94c0-3.31-2.52-5.98-5.98-5.98h-14.69c-6.26,0-11.09-4.54-11.09-10.95v-2.02c0-6.26,4.9-11.16,11.09-11.16h22.32c1.58,0,2.45.72,2.45,2.81s-.86,2.74-2.45,2.74h-21.6c-3.38,0-6.05,2.45-6.05,5.83v1.73c0,3.38,2.66,5.9,6.05,5.9h14.62c6.26,0,11.09,4.61,11.09,11.02v2.23c0,6.26-4.9,11.16-11.09,11.16Z"/>
        </g>
        <g id="skill_and_tool-2" data-name="skill_and_tool">
          <path class="cls-1" d="M32.04,58.47H4.18c-1.73,0-2.59-.72-2.59-3.02s.86-3.02,2.59-3.02h27.65c5.98,0,9.58-3.89,9.58-9.14v-1.73c0-5.4-3.89-9.5-9.5-9.5H15.48c-9.15,0-15.48-6.62-15.48-15.12v-2.02C0,6.41,6.77,0,15.41,0h26.71c1.73,0,2.66.79,2.66,3.02s-.94,3.02-2.66,3.02H15.7c-5.69,0-9.5,3.82-9.5,9.07v1.8c0,5.47,3.74,9.14,9.58,9.14h16.27c8.86,0,15.41,6.91,15.41,15.48v1.94c0,8.5-6.48,14.98-15.41,14.98Z"/>
          <path class="cls-1" d="M59.69,58.54c-2.16,0-2.88-.79-2.88-2.52V2.66c0-1.73.72-2.59,2.88-2.59s2.95.86,2.95,2.59v53.36c0,1.73-.79,2.52-2.95,2.52ZM85.25,58.61c-.58,0-1.08-.29-1.66-.79l-15.12-13.25c-2.81-2.45-4.46-5.18-4.46-9.07,0-3.31,1.44-6.41,4.9-9.14l14.26-11.23c.58-.43,1.08-.72,1.66-.72,1.3,0,3.17,1.94,3.17,3.24,0,.65-.43,1.22-1.08,1.73l-14.04,10.94c-2.02,1.58-3.24,3.17-3.24,5.18s1.01,3.67,2.74,5.11l15.12,13.11c.65.58,1.01,1.08,1.01,1.73,0,1.22-2.02,3.17-3.24,3.17Z"/>
          <path class="cls-1" d="M97.27,12.17c-2.23,0-2.95-.79-2.95-2.52v-4.25c0-1.73.72-2.59,2.95-2.59s2.95.86,2.95,2.59v4.25c0,1.73-.79,2.52-2.95,2.52ZM97.27,58.54c-2.23,0-2.95-.79-2.95-2.52V18.43c0-1.73.72-2.59,2.95-2.59s2.95.86,2.95,2.59v37.59c0,1.73-.79,2.52-2.95,2.52Z"/>
          <path class="cls-1" d="M114.91,58.54c-2.3,0-3.02-.86-3.02-2.59V2.74c0-1.73.72-2.66,3.02-2.66s3.1.94,3.1,2.66v53.21c0,1.73-.79,2.59-3.1,2.59Z"/>
          <path class="cls-1" d="M132.69,58.54c-2.3,0-3.02-.86-3.02-2.59V2.74c0-1.73.72-2.66,3.02-2.66s3.1.94,3.1,2.66v53.21c0,1.73-.79,2.59-3.1,2.59Z"/>
          <path class="cls-1" d="M172.37,58.54h-23.47c-1.58,0-2.38-.65-2.38-2.74s.79-2.81,2.38-2.81h22.83c3.46,0,5.98-2.45,5.98-5.83v-1.94c0-3.31-2.52-5.98-5.98-5.98h-14.69c-6.26,0-11.09-4.54-11.09-10.95v-2.02c0-6.26,4.9-11.16,11.09-11.16h22.32c1.58,0,2.45.72,2.45,2.81s-.86,2.74-2.45,2.74h-21.6c-3.38,0-6.05,2.45-6.05,5.83v1.73c0,3.38,2.66,5.9,6.05,5.9h14.62c6.26,0,11.09,4.61,11.09,11.02v2.23c0,6.26-4.9,11.16-11.09,11.16Z"/>
          <path class="cls-1" d="M251.86,58.54c-.72,1.01-1.37,1.51-2.09,1.51-.43,0-.94-.22-1.44-.65l-4.39-3.38c-2.74,3.02-6.7,4.9-11.38,4.9h-25.13c-8.28,0-14.83-6.26-14.83-15.12v-2.66c0-6.7,1.44-11.02,11.38-14.33l3.46-1.15c-5.47-4.61-9-8.5-9-12.67v-3.1c0-6.77,3.74-11.38,11.09-11.38h15.12c7.63,0,11.45,4.54,11.45,11.59v3.24c0,5.83-2.38,8.71-10.22,11.38l-7.49,2.52,23.83,18.36c.14-.86.29-1.8.29-2.74v-6.84c0-1.58.65-2.38,2.74-2.38s2.74.79,2.74,2.38v6.98c0,2.23-.36,4.32-1.08,6.19l4.68,3.6c.72.58,1.08,1.08,1.08,1.8,0,.5-.22,1.15-.79,1.94ZM212.18,31.32l-5.11,1.73c-7.85,2.67-8.64,4.61-8.64,10.44v1.87c0,5.83,4.25,9.87,9.72,9.87h23.91c2.88,0,5.47-1.01,7.27-2.81l-27.15-21.1ZM230.18,12.31c0-3.96-1.58-6.48-5.69-6.48h-14.55c-4.03,0-5.47,2.45-5.47,6.41v2.59c0,3.1,3.24,6.26,9.07,10.73l9.65-3.31c5.54-1.94,6.98-3.31,6.98-7.13v-2.81Z"/>
          <path class="cls-1" d="M300.74,6.05h-19.8v49.9c0,1.73-.79,2.59-3.1,2.59s-3.02-.86-3.02-2.59V6.05h-20.09c-1.73,0-2.59-.72-2.59-3.02s.86-3.02,2.59-3.02h46.01c1.73,0,2.66.79,2.66,3.02s-.94,3.02-2.66,3.02Z"/>
          <path class="cls-1" d="M332.35,58.61h-7.34c-8.71,0-15.84-6.7-15.84-16.13v-11.23c0-9.5,7.13-16.2,15.84-16.2h7.34c9.14,0,15.91,7.34,15.91,16.13v11.31c0,8.78-6.77,16.13-15.91,16.13ZM342.5,31.54c0-5.76-4.54-10.95-10.51-10.95h-6.55c-5.91,0-10.51,4.61-10.51,11.09v10.37c0,6.41,4.61,10.95,10.51,10.95h6.55c5.98,0,10.51-5.04,10.51-10.87v-10.58Z"/>
          <path class="cls-1" d="M378.64,58.61h-7.34c-8.71,0-15.84-6.7-15.84-16.13v-11.23c0-9.5,7.13-16.2,15.84-16.2h7.34c9.14,0,15.91,7.34,15.91,16.13v11.31c0,8.78-6.77,16.13-15.91,16.13ZM388.8,31.54c0-5.76-4.54-10.95-10.51-10.95h-6.55c-5.91,0-10.51,4.61-10.51,11.09v10.37c0,6.41,4.61,10.95,10.51,10.95h6.55c5.98,0,10.51-5.04,10.51-10.87v-10.58Z"/>
          <path class="cls-1" d="M407.01,58.54c-2.3,0-3.02-.86-3.02-2.59V2.74c0-1.73.72-2.66,3.02-2.66s3.1.94,3.1,2.66v53.21c0,1.73-.79,2.59-3.1,2.59Z"/>
          <path class="cls-1" d="M446.68,58.54h-23.47c-1.58,0-2.38-.65-2.38-2.74s.79-2.81,2.38-2.81h22.83c3.46,0,5.98-2.45,5.98-5.83v-1.94c0-3.31-2.52-5.98-5.98-5.98h-14.69c-6.26,0-11.09-4.54-11.09-10.95v-2.02c0-6.26,4.9-11.16,11.09-11.16h22.32c1.58,0,2.45.72,2.45,2.81s-.86,2.74-2.45,2.74h-21.6c-3.38,0-6.05,2.45-6.05,5.83v1.73c0,3.38,2.66,5.9,6.05,5.9h14.62c6.26,0,11.09,4.61,11.09,11.02v2.23c0,6.26-4.9,11.16-11.09,11.16Z"/>
        </g>
      </g>
    </g>
  </g>
</svg>