<?xml version="1.0" encoding="UTF-8"?>
<svg id="_レイヤー_2" data-name="レイヤー_2" xmlns="http://www.w3.org/2000/svg" viewBox="0 0 95.42 95.79">
  <defs>
    <style>
      .cls-1 {
        fill: #fcc11a;
      }

      .cls-2 {
        fill: #fee269;
      }

      .cls-3 {
        fill: #ffa722;
      }
    </style>
  </defs>
  <g id="TOP_PC">
    <g>
      <path class="cls-1" d="M26.99,31.21c2.6-3.25,5.58-5.69,8.96-7.31,3.38-1.63,6.88-2.49,10.52-2.58,3.64-.1,7.16.49,10.57,1.76,3.41,1.27,6.42,3.17,9.02,5.71,2.54,2.54,4.49,5.46,5.85,8.78,1.37,3.32,2.05,6.76,2.06,10.34,0,3.58-.69,7.07-2.09,10.48-1.39,3.41-3.55,6.45-6.47,9.12-3.25,2.99-6.98,4.97-11.2,5.95-4.22.98-8.52.93-12.91-.15-4.39-1.07-8.4-3.23-12.04-6.49-2.41-2.15-4.23-4.73-5.46-7.75-1.24-3.02-1.94-6.21-2.1-9.56-.17-3.35.21-6.61,1.11-9.8.91-3.19,2.3-6.01,4.18-8.48Z"/>
      <path class="cls-2" d="M39.17,27.93c1.72.78,2.42,1.99,2.12,3.66-.3,1.66-1.01,3.38-2.12,5.15-1.05,1.83-2.16,3.18-3.32,4.07-1.16.89-2.52,1.02-4.07.42-1-.39-1.58-1.11-1.74-2.16-.17-1.05-.08-2.17.25-3.36.33-1.19.75-2.2,1.25-3.03.44-.83,1.08-1.69,1.91-2.58.83-.89,1.74-1.58,2.74-2.08,1-.5,1.99-.53,2.99-.08Z"/>
      <path class="cls-3" d="M46.98,14.39c.17-.28.61-1.04,1.33-2.28s1.56-2.66,2.53-4.24c.97-1.58,1.85-3.05,2.66-4.4.8-1.36,1.37-2.23,1.7-2.62.61-.83,1.19-1.05,1.74-.66.55.39.89.89,1,1.5.06.22.17.87.33,1.95.17,1.08.37,2.34.62,3.78.25,1.44.48,2.88.71,4.32.22,1.44.42,2.67.58,3.7.17,1.02.28,1.65.33,1.87.06.44-.03.84-.25,1.2-.22.36-.61.51-1.16.46-.17,0-.76-.08-1.79-.25-1.02-.17-2.2-.35-3.53-.54s-2.55-.39-3.65-.58c-1.11-.19-1.83-.35-2.16-.46-1.44-.33-1.77-1.25-1-2.74Z"/>
      <path class="cls-3" d="M70.24,23.69c.17-.06.79-.21,1.87-.46,1.08-.25,2.38-.55,3.9-.91,1.52-.36,3.06-.71,4.61-1.04,1.55-.33,2.89-.64,4.03-.91s1.81-.44,2.04-.5c.78-.22,1.29-.08,1.54.42.25.5.12,1.08-.37,1.74-.11.11-.5.62-1.16,1.54-.66.91-1.45,2.01-2.37,3.28-.91,1.27-1.83,2.55-2.74,3.82-.91,1.27-1.7,2.37-2.37,3.28s-1.08,1.45-1.25,1.62c-.33.39-.68.57-1.04.54-.36-.03-.65-.18-.87-.46-.17-.11-.54-.61-1.12-1.5-.58-.89-1.26-1.9-2.04-3.03-.78-1.14-1.47-2.19-2.08-3.16s-1.02-1.59-1.25-1.87c-.83-1.22-.61-2.02.66-2.41Z"/>
      <path class="cls-3" d="M80.95,46.79c.17.11.71.43,1.62.96.91.53,1.98,1.15,3.2,1.87,1.22.72,2.45,1.45,3.7,2.2s2.31,1.4,3.2,1.95c.89.55,1.44.91,1.66,1.08.89.61,1.23,1.26,1.04,1.95-.19.69-.68,1.15-1.45,1.37-.22.06-.87.17-1.95.33-1.08.17-2.37.36-3.86.58s-2.99.44-4.49.66-2.78.43-3.86.62c-1.08.19-1.73.29-1.95.29-.5.11-.89,0-1.16-.33-.28-.33-.39-.69-.33-1.08,0-.22.1-.87.29-1.95.19-1.08.4-2.3.62-3.65s.43-2.62.62-3.78c.19-1.16.35-1.88.46-2.16.17-.66.53-1.05,1.08-1.16.55-.11,1.08-.03,1.58.25Z"/>
      <path class="cls-3" d="M69.65,69.13c-.28.17-.87.54-1.79,1.12-.91.58-1.92,1.25-3.03,1.99-1.11.75-2.12,1.45-3.03,2.12s-1.51,1.14-1.79,1.41c-.28.22-.53.57-.75,1.04-.22.47-.06.93.5,1.37.17.17.71.57,1.62,1.2.91.64,2.01,1.4,3.28,2.28s2.55,1.79,3.82,2.7c1.27.91,2.38,1.69,3.32,2.33.94.64,1.52,1.01,1.74,1.12.55.39,1.08.4,1.58.04.5-.36.69-.84.58-1.45-.11-.55-.35-1.63-.71-3.24-.36-1.61-.76-3.35-1.2-5.23s-.84-3.56-1.2-5.03c-.36-1.47-.57-2.34-.62-2.62-.17-.66-.46-1.09-.87-1.29-.42-.19-.9-.15-1.45.12Z"/>
      <path class="cls-3" d="M36.51,76.11c.33,0,1.07.1,2.2.29s2.37.42,3.7.66c1.33.25,2.53.48,3.61.71,1.08.22,1.73.39,1.95.5.55.22.96.5,1.2.83.25.33.12,1-.37,1.99-.17.22-.51.78-1.04,1.66-.53.89-1.18,1.95-1.95,3.2-.78,1.25-1.56,2.49-2.37,3.74s-1.51,2.35-2.12,3.32-1,1.59-1.16,1.87c-.55.77-1.14,1.05-1.74.83-.61-.22-.97-.69-1.08-1.41-.06-.22-.15-.87-.29-1.95-.14-1.08-.32-2.35-.54-3.82-.22-1.47-.44-2.95-.66-4.44-.22-1.5-.42-2.78-.58-3.86-.17-1.08-.28-1.73-.33-1.95-.11-.55-.06-1.08.17-1.58.22-.5.69-.69,1.41-.58Z"/>
      <path class="cls-3" d="M16.82,60.16c-.11.17-.47.66-1.08,1.5-.61.83-1.33,1.84-2.16,3.03-.83,1.19-1.66,2.37-2.49,3.53-.83,1.16-1.55,2.17-2.16,3.03-.61.86-.97,1.37-1.08,1.54-.61.83-.71,1.55-.29,2.16.42.61,1.09.83,2.04.66.5-.11,1.5-.35,2.99-.71,1.5-.36,3.16-.78,4.98-1.25s3.47-.9,4.94-1.29c1.47-.39,2.4-.61,2.78-.66.78-.17,1.16-.54,1.16-1.12s-.11-1.07-.33-1.45c-.11-.17-.47-.65-1.08-1.45-.61-.8-1.29-1.72-2.04-2.74-.75-1.02-1.41-1.97-1.99-2.82s-.96-1.4-1.12-1.62c-.44-.78-.96-1.23-1.54-1.37s-1.09.21-1.54,1.04Z"/>
      <path class="cls-3" d="M14.16,48.2c-.28-.11-1.05-.54-2.33-1.29s-2.69-1.58-4.24-2.49c-1.55-.91-2.96-1.74-4.24-2.49s-2.1-1.23-2.49-1.45c-.61-.33-.9-.89-.87-1.66.03-.78.48-1.3,1.37-1.58.39-.17,1.33-.37,2.82-.62,1.5-.25,3.14-.51,4.94-.79s3.45-.53,4.94-.75c1.5-.22,2.46-.36,2.91-.42.89-.11,1.47.04,1.74.46.28.42.42.9.42,1.45-.06.44-.15,1.16-.29,2.16s-.32,2.09-.54,3.28c-.22,1.19-.44,2.3-.66,3.32s-.39,1.73-.5,2.12c-.39,1.22-1.38,1.47-2.99.75Z"/>
      <path class="cls-3" d="M35.51,19.46c-.28.22-.89.65-1.83,1.29-.94.64-1.98,1.33-3.11,2.08s-2.16,1.44-3.07,2.08c-.91.64-1.48,1.04-1.7,1.2-.5.33-.94.39-1.33.17-.39-.22-.64-.61-.75-1.16-.06-.17-.22-.78-.5-1.83-.28-1.05-.6-2.33-.96-3.82-.36-1.5-.73-2.99-1.12-4.49-.39-1.5-.72-2.81-1-3.95-.28-1.14-.44-1.87-.5-2.2-.17-1.05.03-1.69.58-1.91.55-.22,1.14-.11,1.74.33.28.22.89.68,1.83,1.37.94.69,2.02,1.48,3.24,2.37,1.22.89,2.42,1.76,3.61,2.62s2.22,1.59,3.07,2.2c.86.61,1.37,1,1.54,1.16.44.28.72.66.83,1.16.11.5-.08.94-.58,1.33Z"/>
    </g>
  </g>
</svg>