<?xml version="1.0" encoding="UTF-8"?>
<svg id="_レイヤー_2" data-name="レイヤー_2" xmlns="http://www.w3.org/2000/svg" viewBox="0 0 58.67 15.11">
  <defs>
    <style>
      .cls-1 {
        fill: #f58196;
      }
    </style>
  </defs>
  <g id="TOP_PC">
    <g id="FV">
      <g id="FV_TOP">
        <g id="_ようこそ" data-name="ようこそ">
          <g>
            <path class="cls-1" d="M10.08,2.02h3.64v.72h-3.64v4.29h3.64v.72h-3.64v5.04l-3.17,1.94h-3.76l-3.15-1.94v-3.82l3.15-1.94h4.52V0h2.41v2.02ZM7.67,7.74H3.49l-1.1,2.05v2.16l1.1,2.05h3.08l1.1-2.05v-4.21Z"/>
            <path class="cls-1" d="M23.67,4.2h-9.04v-.72h9.38l3.15,1.93v6.45l-10.33,3.26v-.74l7.94-4.11v-4.02l-1.1-2.05ZM25.38.72h-8.88v-.72h8.88v.72Z"/>
            <path class="cls-1" d="M33.21,14.73l-3.91-1.58v-3.62h2.39v2.79l1.85,1.69h7.78v.72h-8.12ZM38.81,4.02V1.91h-9.04v-.72h11.45v3.69l-3.76,1.35v-.83l1.35-1.39Z"/>
            <path class="cls-1" d="M51.01,6.43h-6.7v-.72h14.35v.72h-5.94l-3.37,2.66v1.93l7.63,3.02v.83l-10.03-2.43v-4.2l4.05-1.82ZM48.42.59v1.39l1.37,1.4v.83l-3.76-1.35V.59h2.39ZM55.03,2.14V.22h2.41v2.79l-5.1,2.27v-.83l2.68-2.3Z"/>
          </g>
        </g>
      </g>
    </g>
  </g>
</svg>