<?xml version="1.0" encoding="UTF-8"?>
<svg id="_レイヤー_2" data-name="レイヤー_2" xmlns="http://www.w3.org/2000/svg" viewBox="0 0 45.6 20.48">
  <defs>
    <style>
      .cls-1 {
        isolation: isolate;
      }

      .cls-2 {
        fill: #1f1e00;
      }

      .cls-3 {
        fill: none;
        stroke: #fff;
        stroke-linecap: round;
        stroke-linejoin: round;
        stroke-width: 10px;
      }
    </style>
  </defs>
  <g id="_レイヤー_2-2" data-name="_レイヤー_2">
    <g id="TOP_PC">
      <g id="_作品を見てみる">
        <g>
          <g class="cls-1">
            <g class="cls-1">
              <path class="cls-3" d="M32.2,15.22c-.59.29-1.08.33-1.48.12-.4-.21-.6-.67-.6-1.36v-2.8H5.96c-.27,0-.49-.09-.68-.28-.19-.19-.28-.41-.28-.68,0-.29.09-.53.28-.72.19-.19.41-.28.68-.28h24.16v-2.72c0-.72.2-1.18.6-1.38s.89-.15,1.48.14l7.44,3.76c.64.29.96.69.96,1.2s-.32.89-.96,1.24l-7.44,3.76Z"/>
            </g>
          </g>
          <g class="cls-1">
            <g class="cls-1">
              <path class="cls-2" d="M32.2,15.22c-.59.29-1.08.33-1.48.12-.4-.21-.6-.67-.6-1.36v-2.8H5.96c-.27,0-.49-.09-.68-.28-.19-.19-.28-.41-.28-.68,0-.29.09-.53.28-.72.19-.19.41-.28.68-.28h24.16v-2.72c0-.72.2-1.18.6-1.38s.89-.15,1.48.14l7.44,3.76c.64.29.96.69.96,1.2s-.32.89-.96,1.24l-7.44,3.76Z"/>
            </g>
          </g>
        </g>
      </g>
    </g>
  </g>
</svg>