<?xml version="1.0" encoding="UTF-8"?>
<svg id="_レイヤー_2" data-name="レイヤー_2" xmlns="http://www.w3.org/2000/svg" viewBox="0 0 248.79 32.79">
  <defs>
    <style>
      .cls-1 {
        fill: #1f1e00;
      }

      .cls-2 {
        fill: none;
        stroke: #fff;
        stroke-linecap: round;
        stroke-linejoin: round;
        stroke-width: 10px;
      }
    </style>
  </defs>
  <g id="About_PC">
    <g id="_作品を見てみる" data-name="作品を見てみる">
      <g>
        <g>
          <path class="cls-2" d="M9.07,2.12l-6.08,15.55c-.22.58-.54.86-1.12.86-.68,0-1.87-.4-1.87-1.22,0-.18.04-.4.14-.61L6.16,1.3c.22-.58.61-.9,1.22-.9.65,0,1.84.36,1.84,1.12,0,.18-.07.4-.14.61ZM5.54,32.61c-1.15,0-1.51-.43-1.51-1.3v-15.33c0-.86.36-1.33,1.51-1.33s1.51.47,1.51,1.33v15.33c0,.86-.4,1.3-1.51,1.3ZM30.99,6.37h-7.99v6.44h7.38c.79,0,1.19.36,1.19,1.37s-.4,1.37-1.19,1.37h-7.38v6.37h7.38c.79,0,1.19.36,1.19,1.37s-.4,1.37-1.19,1.37h-7.38v6.66c0,.86-.4,1.26-1.48,1.26s-1.48-.4-1.48-1.26V6.37h-4.32l-2.27,7.92c-.18.61-.5.94-1.12.94-.72,0-1.8-.29-1.8-1.12,0-.18.04-.32.07-.5L14.18.97c.18-.65.5-.97,1.15-.97.72,0,1.8.29,1.8,1.15,0,.14-.04.32-.07.5l-.54,1.94h14.47c.79,0,1.22.36,1.22,1.4s-.43,1.37-1.22,1.37Z"/>
          <path class="cls-2" d="M48.02,32.11h-8.71c-1.51,0-2.48-.97-2.48-2.48v-9.25c0-1.51.97-2.48,2.48-2.48h8.71c1.51,0,2.48.97,2.48,2.48v9.25c0,1.51-.97,2.48-2.48,2.48ZM47.81,20.45h-8.28v9.11h8.28v-9.11ZM59.9,14.33h-15.87c-1.51,0-2.48-.97-2.48-2.48V3.28c0-1.51.97-2.48,2.48-2.48h15.87c1.51,0,2.48.97,2.48,2.48v8.57c0,1.51-.97,2.48-2.48,2.48ZM59.58,3.38h-15.23v8.35h15.23V3.38ZM64.76,32.11h-8.71c-1.51,0-2.48-.97-2.48-2.48v-9.25c0-1.51.97-2.48,2.48-2.48h8.71c1.51,0,2.48.97,2.48,2.48v9.25c0,1.51-.97,2.48-2.48,2.48ZM64.51,20.45h-8.24v9.11h8.24v-9.11Z"/>
          <path class="cls-2" d="M98.35,6.62h-18.9l-2.23,13.03c-.11.72-.47,1.12-1.26,1.12s-1.84-.18-1.84-1.19l2.2-12.96h-2.16c-.9,0-1.33-.36-1.33-1.55s.43-1.55,1.33-1.55h2.7l.29-1.73c.11-.72.47-1.12,1.26-1.12s1.84.22,1.84,1.22l-.25,1.62h18.36c.9,0,1.37.4,1.37,1.55s-.47,1.55-1.37,1.55ZM101.95,15.44h-6.26v6.19c0,.9-.4,1.33-1.55,1.33s-1.55-.43-1.55-1.33v-6.19h-4.9c-3.78,0-6.88,3.1-6.88,6.88s3.1,6.8,6.88,6.8h11.52c.9,0,1.37.4,1.37,1.55s-.47,1.55-1.37,1.55h-11.52c-5.51,0-9.97-4.43-9.97-9.9s4.46-9.97,9.97-9.97h14.25c.9,0,1.37.4,1.37,1.55s-.47,1.55-1.37,1.55Z"/>
          <path class="cls-2" d="M139.14,19.15h-3.71v12.31c0,.9-.4,1.33-1.55,1.33s-1.55-.43-1.55-1.33v-12.31h-8.82v4.93c0,4.39-3.6,7.99-7.99,7.99s-7.99-3.56-7.99-7.99,3.56-7.96,7.99-7.96h4.9V7.96c0-1.66-1.19-2.84-2.84-2.84h-6.98c-.68,0-1.26-.61-1.26-1.58s.58-1.55,1.26-1.55h7.31c3.42,0,5.58,2.2,5.58,5.58v8.57h8.85V2.59c0-.9.36-1.37,1.55-1.37s1.55.47,1.55,1.37v13.53h3.71c.86,0,1.33.4,1.33,1.51s-.47,1.51-1.33,1.51ZM120.49,19.15h-4.97c-2.7,0-4.93,2.23-4.93,4.93s2.23,4.97,4.93,4.97,4.97-2.23,4.97-4.97v-4.93Z"/>
          <path class="cls-2" d="M173.77,5.69h-9.54c-6.05,0-10.98,5.65-10.98,11.77,0,6.48,5.4,11.73,11.84,11.73,2.66,0,5.15-.9,7.13-2.45.18-.14.54-.32.9-.32.86,0,1.62.79,1.62,1.62,0,.43-.22.79-.4.97-2.52,2.05-5.76,3.28-9.25,3.28-8.17,0-14.94-6.66-14.94-14.83,0-4.82,2.56-9.11,6.3-11.77h-10.62c-.9,0-1.33-.36-1.33-1.55s.43-1.55,1.33-1.55h27.93c.9,0,1.37.4,1.37,1.55s-.47,1.55-1.37,1.55Z"/>
          <path class="cls-2" d="M211.14,19.15h-3.71v12.31c0,.9-.4,1.33-1.55,1.33s-1.55-.43-1.55-1.33v-12.31h-8.82v4.93c0,4.39-3.6,7.99-7.99,7.99s-7.99-3.56-7.99-7.99,3.56-7.96,7.99-7.96h4.9V7.96c0-1.66-1.19-2.84-2.84-2.84h-6.98c-.68,0-1.26-.61-1.26-1.58s.58-1.55,1.26-1.55h7.31c3.42,0,5.58,2.2,5.58,5.58v8.57h8.85V2.59c0-.9.36-1.37,1.55-1.37s1.55.47,1.55,1.37v13.53h3.71c.86,0,1.33.4,1.33,1.51s-.47,1.51-1.33,1.51ZM192.49,19.15h-4.97c-2.7,0-4.93,2.23-4.93,4.93s2.23,4.97,4.93,4.97,4.97-2.23,4.97-4.97v-4.93Z"/>
          <path class="cls-2" d="M238.46,32.79h-13.54c-4.28,0-7.38-3.38-7.38-7.31s3.1-7.31,7.42-7.31c4.07,0,7.24,3.38,7.24,7.31,0,1.62-.54,3.13-1.48,4.39h7.67c4.03,0,7.31-3.2,7.31-7.2s-3.28-7.24-7.27-7.24h-9.25V6.01c0-.58-.43-1.01-1.01-1.01h-8.89c-.68,0-1.26-.61-1.26-1.58s.58-1.55,1.26-1.55h10.29c1.51,0,2.7,1.19,2.7,2.7v7.74h6.19c5.76,0,10.33,4.72,10.33,10.26s-4.57,10.22-10.33,10.22ZM224.86,20.99c-2.45,0-4.43,2.02-4.43,4.5s1.94,4.39,4.5,4.39c2.41,0,4.43-1.98,4.43-4.39s-2.02-4.5-4.5-4.5Z"/>
        </g>
        <g>
          <path class="cls-1" d="M9.07,2.12l-6.08,15.55c-.22.58-.54.86-1.12.86-.68,0-1.87-.4-1.87-1.22,0-.18.04-.4.14-.61L6.16,1.3c.22-.58.61-.9,1.22-.9.65,0,1.84.36,1.84,1.12,0,.18-.07.4-.14.61ZM5.54,32.61c-1.15,0-1.51-.43-1.51-1.3v-15.33c0-.86.36-1.33,1.51-1.33s1.51.47,1.51,1.33v15.33c0,.86-.4,1.3-1.51,1.3ZM30.99,6.37h-7.99v6.44h7.38c.79,0,1.19.36,1.19,1.37s-.4,1.37-1.19,1.37h-7.38v6.37h7.38c.79,0,1.19.36,1.19,1.37s-.4,1.37-1.19,1.37h-7.38v6.66c0,.86-.4,1.26-1.48,1.26s-1.48-.4-1.48-1.26V6.37h-4.32l-2.27,7.92c-.18.61-.5.94-1.12.94-.72,0-1.8-.29-1.8-1.12,0-.18.04-.32.07-.5L14.18.97c.18-.65.5-.97,1.15-.97.72,0,1.8.29,1.8,1.15,0,.14-.04.32-.07.5l-.54,1.94h14.47c.79,0,1.22.36,1.22,1.4s-.43,1.37-1.22,1.37Z"/>
          <path class="cls-1" d="M48.02,32.11h-8.71c-1.51,0-2.48-.97-2.48-2.48v-9.25c0-1.51.97-2.48,2.48-2.48h8.71c1.51,0,2.48.97,2.48,2.48v9.25c0,1.51-.97,2.48-2.48,2.48ZM47.81,20.45h-8.28v9.11h8.28v-9.11ZM59.9,14.33h-15.87c-1.51,0-2.48-.97-2.48-2.48V3.28c0-1.51.97-2.48,2.48-2.48h15.87c1.51,0,2.48.97,2.48,2.48v8.57c0,1.51-.97,2.48-2.48,2.48ZM59.58,3.38h-15.23v8.35h15.23V3.38ZM64.76,32.11h-8.71c-1.51,0-2.48-.97-2.48-2.48v-9.25c0-1.51.97-2.48,2.48-2.48h8.71c1.51,0,2.48.97,2.48,2.48v9.25c0,1.51-.97,2.48-2.48,2.48ZM64.51,20.45h-8.24v9.11h8.24v-9.11Z"/>
          <path class="cls-1" d="M98.35,6.62h-18.9l-2.23,13.03c-.11.72-.47,1.12-1.26,1.12s-1.84-.18-1.84-1.19l2.2-12.96h-2.16c-.9,0-1.33-.36-1.33-1.55s.43-1.55,1.33-1.55h2.7l.29-1.73c.11-.72.47-1.12,1.26-1.12s1.84.22,1.84,1.22l-.25,1.62h18.36c.9,0,1.37.4,1.37,1.55s-.47,1.55-1.37,1.55ZM101.95,15.44h-6.26v6.19c0,.9-.4,1.33-1.55,1.33s-1.55-.43-1.55-1.33v-6.19h-4.9c-3.78,0-6.88,3.1-6.88,6.88s3.1,6.8,6.88,6.8h11.52c.9,0,1.37.4,1.37,1.55s-.47,1.55-1.37,1.55h-11.52c-5.51,0-9.97-4.43-9.97-9.9s4.46-9.97,9.97-9.97h14.25c.9,0,1.37.4,1.37,1.55s-.47,1.55-1.37,1.55Z"/>
          <path class="cls-1" d="M139.14,19.15h-3.71v12.31c0,.9-.4,1.33-1.55,1.33s-1.55-.43-1.55-1.33v-12.31h-8.82v4.93c0,4.39-3.6,7.99-7.99,7.99s-7.99-3.56-7.99-7.99,3.56-7.96,7.99-7.96h4.9V7.96c0-1.66-1.19-2.84-2.84-2.84h-6.98c-.68,0-1.26-.61-1.26-1.58s.58-1.55,1.26-1.55h7.31c3.42,0,5.58,2.2,5.58,5.58v8.57h8.85V2.59c0-.9.36-1.37,1.55-1.37s1.55.47,1.55,1.37v13.53h3.71c.86,0,1.33.4,1.33,1.51s-.47,1.51-1.33,1.51ZM120.49,19.15h-4.97c-2.7,0-4.93,2.23-4.93,4.93s2.23,4.97,4.93,4.97,4.97-2.23,4.97-4.97v-4.93Z"/>
          <path class="cls-1" d="M173.77,5.69h-9.54c-6.05,0-10.98,5.65-10.98,11.77,0,6.48,5.4,11.73,11.84,11.73,2.66,0,5.15-.9,7.13-2.45.18-.14.54-.32.9-.32.86,0,1.62.79,1.62,1.62,0,.43-.22.79-.4.97-2.52,2.05-5.76,3.28-9.25,3.28-8.17,0-14.94-6.66-14.94-14.83,0-4.82,2.56-9.11,6.3-11.77h-10.62c-.9,0-1.33-.36-1.33-1.55s.43-1.55,1.33-1.55h27.93c.9,0,1.37.4,1.37,1.55s-.47,1.55-1.37,1.55Z"/>
          <path class="cls-1" d="M211.14,19.15h-3.71v12.31c0,.9-.4,1.33-1.55,1.33s-1.55-.43-1.55-1.33v-12.31h-8.82v4.93c0,4.39-3.6,7.99-7.99,7.99s-7.99-3.56-7.99-7.99,3.56-7.96,7.99-7.96h4.9V7.96c0-1.66-1.19-2.84-2.84-2.84h-6.98c-.68,0-1.26-.61-1.26-1.58s.58-1.55,1.26-1.55h7.31c3.42,0,5.58,2.2,5.58,5.58v8.57h8.85V2.59c0-.9.36-1.37,1.55-1.37s1.55.47,1.55,1.37v13.53h3.71c.86,0,1.33.4,1.33,1.51s-.47,1.51-1.33,1.51ZM192.49,19.15h-4.97c-2.7,0-4.93,2.23-4.93,4.93s2.23,4.97,4.93,4.97,4.97-2.23,4.97-4.97v-4.93Z"/>
          <path class="cls-1" d="M238.46,32.79h-13.54c-4.28,0-7.38-3.38-7.38-7.31s3.1-7.31,7.42-7.31c4.07,0,7.24,3.38,7.24,7.31,0,1.62-.54,3.13-1.48,4.39h7.67c4.03,0,7.31-3.2,7.31-7.2s-3.28-7.24-7.27-7.24h-9.25V6.01c0-.58-.43-1.01-1.01-1.01h-8.89c-.68,0-1.26-.61-1.26-1.58s.58-1.55,1.26-1.55h10.29c1.51,0,2.7,1.19,2.7,2.7v7.74h6.19c5.76,0,10.33,4.72,10.33,10.26s-4.57,10.22-10.33,10.22ZM224.86,20.99c-2.45,0-4.43,2.02-4.43,4.5s1.94,4.39,4.5,4.39c2.41,0,4.43-1.98,4.43-4.39s-2.02-4.5-4.5-4.5Z"/>
        </g>
      </g>
    </g>
  </g>
</svg>