<?xml version="1.0" encoding="UTF-8"?>
<svg id="_レイヤー_2" data-name="レイヤー_2" xmlns="http://www.w3.org/2000/svg" viewBox="0 0 218.59 59.26">
  <defs>
    <style>
      .cls-1 {
        fill: #71cac6;
      }

      .cls-2 {
        fill: none;
        stroke: #fff;
        stroke-linecap: round;
        stroke-linejoin: round;
        stroke-width: 10px;
      }
    </style>
  </defs>
  <g id="Works_PC">
    <g id="WORKS_制作実績">
      <g>
        <path class="cls-2" d="M41.48,59.12h-2.3c-4.68,0-8.86-2.3-11.45-5.91-2.59,3.6-6.7,5.91-11.45,5.91h-2.23c-8.5,0-14.04-6.41-14.04-14.4V3.1C0,1.37.72.5,2.95.5s3.02.86,3.02,2.59v40.97c0,4.82,3.17,9,8.42,9h1.87c4.75,0,8.71-3.82,8.71-9.07V2.23c0-1.22,1.08-2.23,2.81-2.23s2.74,1.01,2.74,2.23v41.76c0,5.33,3.96,9.07,8.71,9.07h1.87c5.33,0,8.5-4.25,8.5-9V3.1c0-1.73.72-2.59,2.95-2.59s3.02.86,3.02,2.59v41.62c0,7.92-5.62,14.4-14.11,14.4Z"/>
        <path class="cls-2" d="M87.41,59.26h-7.34c-8.71,0-15.84-6.7-15.84-16.13v-11.23c0-9.5,7.13-16.2,15.84-16.2h7.34c9.14,0,15.91,7.34,15.91,16.13v11.31c0,8.78-6.77,16.13-15.91,16.13ZM97.56,32.19c0-5.76-4.54-10.95-10.51-10.95h-6.55c-5.91,0-10.51,4.61-10.51,11.09v10.37c0,6.41,4.61,10.95,10.51,10.95h6.55c5.98,0,10.51-5.04,10.51-10.87v-10.58Z"/>
        <path class="cls-2" d="M131.69,21.6h-4.83c-5.83,0-9.94,4.25-9.94,9.65v25.42c0,1.73-.79,2.52-2.95,2.52s-2.95-.79-2.95-2.52v-26.14c0-8.35,6.19-14.76,15.19-14.76h5.47c1.73,0,2.59.79,2.59,2.95s-.86,2.88-2.59,2.88Z"/>
        <path class="cls-2" d="M145.08,59.19c-2.16,0-2.88-.79-2.88-2.52V3.31c0-1.73.72-2.59,2.88-2.59s2.95.86,2.95,2.59v53.36c0,1.73-.79,2.52-2.95,2.52ZM170.64,59.26c-.58,0-1.08-.29-1.66-.79l-15.12-13.25c-2.81-2.45-4.46-5.18-4.46-9.07,0-3.31,1.44-6.41,4.9-9.14l14.26-11.23c.58-.43,1.08-.72,1.66-.72,1.3,0,3.17,1.94,3.17,3.24,0,.65-.43,1.22-1.08,1.73l-14.04,10.94c-2.02,1.58-3.24,3.17-3.24,5.18s1.01,3.67,2.74,5.11l15.12,13.11c.65.58,1.01,1.08,1.01,1.73,0,1.22-2.02,3.17-3.24,3.17Z"/>
        <path class="cls-2" d="M207.5,59.19h-23.47c-1.58,0-2.38-.65-2.38-2.74s.79-2.81,2.38-2.81h22.83c3.46,0,5.98-2.45,5.98-5.83v-1.94c0-3.31-2.52-5.98-5.98-5.98h-14.69c-6.26,0-11.09-4.54-11.09-10.95v-2.02c0-6.26,4.9-11.16,11.09-11.16h22.32c1.58,0,2.45.72,2.45,2.81s-.86,2.74-2.45,2.74h-21.6c-3.38,0-6.05,2.45-6.05,5.83v1.73c0,3.38,2.66,5.9,6.05,5.9h14.62c6.26,0,11.09,4.61,11.09,11.02v2.23c0,6.26-4.9,11.16-11.09,11.16Z"/>
      </g>
      <g>
        <path class="cls-1" d="M41.48,59.12h-2.3c-4.68,0-8.86-2.3-11.45-5.91-2.59,3.6-6.7,5.91-11.45,5.91h-2.23c-8.5,0-14.04-6.41-14.04-14.4V3.1C0,1.37.72.5,2.95.5s3.02.86,3.02,2.59v40.97c0,4.82,3.17,9,8.42,9h1.87c4.75,0,8.71-3.82,8.71-9.07V2.23c0-1.22,1.08-2.23,2.81-2.23s2.74,1.01,2.74,2.23v41.76c0,5.33,3.96,9.07,8.71,9.07h1.87c5.33,0,8.5-4.25,8.5-9V3.1c0-1.73.72-2.59,2.95-2.59s3.02.86,3.02,2.59v41.62c0,7.92-5.62,14.4-14.11,14.4Z"/>
        <path class="cls-1" d="M87.41,59.26h-7.34c-8.71,0-15.84-6.7-15.84-16.13v-11.23c0-9.5,7.13-16.2,15.84-16.2h7.34c9.14,0,15.91,7.34,15.91,16.13v11.31c0,8.78-6.77,16.13-15.91,16.13ZM97.56,32.19c0-5.76-4.54-10.95-10.51-10.95h-6.55c-5.91,0-10.51,4.61-10.51,11.09v10.37c0,6.41,4.61,10.95,10.51,10.95h6.55c5.98,0,10.51-5.04,10.51-10.87v-10.58Z"/>
        <path class="cls-1" d="M131.69,21.6h-4.83c-5.83,0-9.94,4.25-9.94,9.65v25.42c0,1.73-.79,2.52-2.95,2.52s-2.95-.79-2.95-2.52v-26.14c0-8.35,6.19-14.76,15.19-14.76h5.47c1.73,0,2.59.79,2.59,2.95s-.86,2.88-2.59,2.88Z"/>
        <path class="cls-1" d="M145.08,59.19c-2.16,0-2.88-.79-2.88-2.52V3.31c0-1.73.72-2.59,2.88-2.59s2.95.86,2.95,2.59v53.36c0,1.73-.79,2.52-2.95,2.52ZM170.64,59.26c-.58,0-1.08-.29-1.66-.79l-15.12-13.25c-2.81-2.45-4.46-5.18-4.46-9.07,0-3.31,1.44-6.41,4.9-9.14l14.26-11.23c.58-.43,1.08-.72,1.66-.72,1.3,0,3.17,1.94,3.17,3.24,0,.65-.43,1.22-1.08,1.73l-14.04,10.94c-2.02,1.58-3.24,3.17-3.24,5.18s1.01,3.67,2.74,5.11l15.12,13.11c.65.58,1.01,1.08,1.01,1.73,0,1.22-2.02,3.17-3.24,3.17Z"/>
        <path class="cls-1" d="M207.5,59.19h-23.47c-1.58,0-2.38-.65-2.38-2.74s.79-2.81,2.38-2.81h22.83c3.46,0,5.98-2.45,5.98-5.83v-1.94c0-3.31-2.52-5.98-5.98-5.98h-14.69c-6.26,0-11.09-4.54-11.09-10.95v-2.02c0-6.26,4.9-11.16,11.09-11.16h22.32c1.58,0,2.45.72,2.45,2.81s-.86,2.74-2.45,2.74h-21.6c-3.38,0-6.05,2.45-6.05,5.83v1.73c0,3.38,2.66,5.9,6.05,5.9h14.62c6.26,0,11.09,4.61,11.09,11.02v2.23c0,6.26-4.9,11.16-11.09,11.16Z"/>
      </g>
    </g>
  </g>
</svg>